Oxygen-Sans-Book-FF.ufo
<glyph name="numbersign" format="1">
  <advance width="1204"/>
  <unicode hex="0023"/>
  <outline>
    <contour>
      <point x="582" y="-20" type="line"/>
      <point x="674" y="431" type="line"/>
      <point x="392" y="431" type="line"/>
      <point x="298" y="-20" type="line"/>
      <point x="174" y="-20" type="line"/>
      <point x="267" y="431" type="line"/>
      <point x="85" y="431" type="line"/>
      <point x="98" y="522" type="line"/>
      <point x="285" y="522" type="line"/>
      <point x="378" y="967" type="line"/>
      <point x="181" y="967" type="line"/>
      <point x="194" y="1058" type="line"/>
      <point x="397" y="1058" type="line"/>
      <point x="479" y="1460" type="line"/>
      <point x="605" y="1460" type="line"/>
      <point x="523" y="1058" type="line"/>
      <point x="806" y="1058" type="line"/>
      <point x="889" y="1460" type="line"/>
      <point x="1013" y="1460" type="line"/>
      <point x="931" y="1058" type="line"/>
      <point x="1119" y="1058" type="line"/>
      <point x="1104" y="967" type="line"/>
      <point x="913" y="967" type="line"/>
      <point x="820" y="522" type="line"/>
      <point x="1023" y="522" type="line"/>
      <point x="1008" y="431" type="line"/>
      <point x="800" y="431" type="line"/>
      <point x="707" y="-20" type="line"/>
    </contour>
    <contour>
      <point x="694" y="522" type="line"/>
      <point x="787" y="967" type="line"/>
      <point x="504" y="967" type="line"/>
      <point x="410" y="522" type="line"/>
    </contour>
  </outline>
</glyph>
<glyph name="plus" format="1">
  <advance width="1203"/>
  <unicode hex="002B"/>
  <outline>
    <contour>
      <point x="538" y="227" type="line"/>
      <point x="538" y="621" type="line"/>
      <point x="160" y="621" type="line"/>
      <point x="160" y="744" type="line"/>
      <point x="539" y="744" type="line"/>
      <point x="539" y="1133" type="line"/>
      <point x="670" y="1133" type="line"/>
      <point x="670" y="744" type="line"/>
      <point x="1043" y="744" type="line"/>
      <point x="1043" y="621" type="line"/>
      <point x="670" y="621" type="line"/>
      <point x="670" y="227" type="line"/>
    </contour>
  </outline>
</glyph>
<glyph name="hyphen" format="1">
  <advance width="1205"/>
  <unicode hex="002D"/>
  <outline>
    <contour>
      <point x="268" y="579" type="line"/>
      <point x="268" y="714" type="line"/>
      <point x="937" y="714" type="line"/>
      <point x="937" y="579" type="line"/>
    </contour>
  </outline>
</glyph>
<glyph name="period" format="1">
  <advance width="488"/>
  <unicode hex="002E"/>
  <outline>
    <contour>
      <point x="256" y="-11" type="curve" smooth="yes"/>
      <point x="182" y="-11"/>
      <point x="147" y="44"/>
      <point x="147" y="98" type="curve" smooth="yes"/>
      <point x="147" y="152"/>
      <point x="181" y="207"/>
      <point x="256" y="207" type="curve" smooth="yes"/>
      <point x="330" y="207"/>
      <point x="363" y="152"/>
      <point x="363" y="98" type="curve" smooth="yes"/>
      <point x="363" y="44"/>
      <point x="330" y="-11"/>
    </contour>
  </outline>
</glyph>
<glyph name="slash" format="1">
  <advance width="963"/>
  <unicode hex="002F"/>
  <outline>
    <contour>
      <point x="103" y="0" type="line"/>
      <point x="712" y="1460" type="line"/>
      <point x="860" y="1460" type="line"/>
      <point x="247" y="0" type="line"/>
    </contour>
  </outline>
</glyph>
<glyph name="zero" format="1">
  <advance width="1204"/>
  <unicode hex="0030"/>
  <outline>
    <contour>
      <point x="607" y="-29" type="curve" smooth="yes"/>
      <point x="264" y="-29"/>
      <point x="114" y="293"/>
      <point x="114" y="726" type="curve" smooth="yes"/>
      <point x="114" y="1181"/>
      <point x="280" y="1480"/>
      <point x="607" y="1480" type="curve" smooth="yes"/>
      <point x="934" y="1480"/>
      <point x="1090" y="1182"/>
      <point x="1090" y="726" type="curve" smooth="yes"/>
      <point x="1090" y="293"/>
      <point x="950" y="-29"/>
    </contour>
    <contour>
      <point x="607" y="106" type="curve" smooth="yes"/>
      <point x="809" y="106"/>
      <point x="925" y="316"/>
      <point x="925" y="732" type="curve" smooth="yes"/>
      <point x="925" y="1155"/>
      <point x="809" y="1345"/>
      <point x="607" y="1345" type="curve" smooth="yes"/>
      <point x="405" y="1345"/>
      <point x="278" y="1127"/>
      <point x="279" y="731" type="curve"/>
      <point x="279" y="315"/>
      <point x="405" y="106"/>
    </contour>
  </outline>
</glyph>
<glyph name="two" format="1">
  <advance width="1204"/>
  <unicode hex="0032"/>
  <outline>
    <contour>
      <point x="218" y="0" type="line"/>
      <point x="192" y="131" type="line"/>
      <point x="663" y="687" type="line" smooth="yes"/>
      <point x="775" y="819"/>
      <point x="851" y="907"/>
      <point x="851" y="1071" type="curve" smooth="yes"/>
      <point x="851" y="1292"/>
      <point x="692" y="1340"/>
      <point x="577" y="1340" type="curve" smooth="yes"/>
      <point x="461" y="1340"/>
      <point x="336" y="1297"/>
      <point x="247" y="1239" type="curve"/>
      <point x="198" y="1366" type="line"/>
      <point x="285" y="1430"/>
      <point x="442" y="1480"/>
      <point x="595" y="1480" type="curve" smooth="yes"/>
      <point x="779" y="1480"/>
      <point x="1013" y="1390"/>
      <point x="1013" y="1087" type="curve" smooth="yes"/>
      <point x="1013" y="883"/>
      <point x="941" y="778"/>
      <point x="771" y="579" type="curve" smooth="yes"/>
      <point x="379" y="120" type="line"/>
      <point x="1008" y="120" type="line"/>
      <point x="999" y="0" type="line"/>
    </contour>
  </outline>
</glyph>
<glyph name="four" format="1">
  <advance width="1204"/>
  <unicode hex="0034"/>
  <outline>
    <contour>
      <point x="280" y="496" type="line"/>
      <point x="779" y="496" type="line"/>
      <point x="779" y="1254" type="line"/>
    </contour>
    <contour>
      <point x="779" y="0" type="line"/>
      <point x="779" y="368" type="line"/>
      <point x="115" y="368" type="line"/>
      <point x="115" y="512" type="line"/>
      <point x="768" y="1460" type="line"/>
      <point x="937" y="1460" type="line"/>
      <point x="937" y="496" type="line"/>
      <point x="1116" y="496" type="line"/>
      <point x="1104" y="368" type="line"/>
      <point x="937" y="368" type="line"/>
      <point x="937" y="0" type="line"/>
    </contour>
  </outline>
</glyph>
<glyph name="six" format="1">
  <advance width="1204"/>
  <unicode hex="0036"/>
  <outline>
    <contour>
      <point x="621" y="111" type="curve" smooth="yes"/>
      <point x="824" y="111"/>
      <point x="933" y="263"/>
      <point x="933" y="433" type="curve" smooth="yes"/>
      <point x="933" y="609"/>
      <point x="823" y="740"/>
      <point x="627" y="740" type="curve" smooth="yes"/>
      <point x="497" y="740"/>
      <point x="316" y="664"/>
      <point x="316" y="427" type="curve" smooth="yes"/>
      <point x="316" y="259"/>
      <point x="418" y="111"/>
    </contour>
    <contour>
      <point x="625" y="-20" type="curve" smooth="yes"/>
      <point x="323" y="-20"/>
      <point x="157" y="199"/>
      <point x="157" y="437" type="curve" smooth="yes"/>
      <point x="157" y="650"/>
      <point x="245" y="787"/>
      <point x="376" y="976" type="curve"/>
      <point x="705" y="1460" type="line"/>
      <point x="894" y="1460" type="line"/>
      <point x="554" y="960" type="line" smooth="yes"/>
      <point x="524" y="916"/>
      <point x="486" y="863"/>
      <point x="449" y="813" type="curve"/>
      <point x="504" y="845"/>
      <point x="573" y="869"/>
      <point x="656" y="869" type="curve" smooth="yes"/>
      <point x="888" y="869"/>
      <point x="1094" y="693"/>
      <point x="1094" y="434" type="curve" smooth="yes"/>
      <point x="1094" y="183"/>
      <point x="912" y="-20"/>
    </contour>
  </outline>
</glyph>
<glyph name="less" format="1">
  <advance width="1204"/>
  <unicode hex="003C"/>
  <outline>
    <contour>
      <point x="1037" y="135" type="line"/>
      <point x="110" y="580" type="line"/>
      <point x="110" y="667" type="line"/>
      <point x="1040" y="1144" type="line"/>
      <point x="1040" y="1004" type="line"/>
      <point x="295" y="628" type="line"/>
      <point x="1038" y="276" type="line"/>
    </contour>
  </outline>
</glyph>
<glyph name="equal" format="1">
  <advance width="1205"/>
  <unicode hex="003D"/>
  <outline>
    <contour>
      <point x="184" y="429" type="line"/>
      <point x="184" y="553" type="line"/>
      <point x="1021" y="553" type="line"/>
      <point x="1021" y="429" type="line"/>
    </contour>
    <contour>
      <point x="184" y="783" type="line"/>
      <point x="184" y="907" type="line"/>
      <point x="1021" y="907" type="line"/>
      <point x="1021" y="783" type="line"/>
    </contour>
  </outline>
</glyph>
<glyph name="greater" format="1">
  <advance width="1204"/>
  <unicode hex="003E"/>
  <outline>
    <contour>
      <point x="161" y="141" type="line"/>
      <point x="161" y="282" type="line"/>
      <point x="898" y="628" type="line"/>
      <point x="163" y="1010" type="line"/>
      <point x="163" y="1150" type="line"/>
      <point x="1091" y="666" type="line"/>
      <point x="1091" y="578" type="line"/>
    </contour>
  </outline>
</glyph>
<glyph name="at" format="1">
  <advance width="1880"/>
  <unicode hex="0040"/>
  <outline>
    <contour>
      <point x="874" y="364" type="curve" smooth="yes"/>
      <point x="1026" y="364"/>
      <point x="1074" y="521"/>
      <point x="1106" y="717" type="curve" smooth="yes"/>
      <point x="1108" y="731"/>
      <point x="1135" y="886"/>
      <point x="1149" y="971" type="curve"/>
      <point x="1104" y="981"/>
      <point x="1047" y="989"/>
      <point x="1011" y="989" type="curve" smooth="yes"/>
      <point x="824" y="989"/>
      <point x="705" y="791"/>
      <point x="705" y="594" type="curve" smooth="yes"/>
      <point x="705" y="456"/>
      <point x="766" y="364"/>
    </contour>
    <contour>
      <point x="921" y="-151" type="curve" smooth="yes"/>
      <point x="452" y="-151"/>
      <point x="128" y="149"/>
      <point x="128" y="638" type="curve" smooth="yes"/>
      <point x="128" y="1126"/>
      <point x="491" y="1486"/>
      <point x="988" y="1486" type="curve" smooth="yes"/>
      <point x="1417" y="1486"/>
      <point x="1745" y="1210"/>
      <point x="1745" y="772" type="curve" smooth="yes"/>
      <point x="1745" y="430"/>
      <point x="1547" y="256"/>
      <point x="1376" y="256" type="curve" smooth="yes"/>
      <point x="1246" y="256"/>
      <point x="1169" y="337"/>
      <point x="1139" y="465" type="curve"/>
      <point x="1090" y="359"/>
      <point x="998" y="252"/>
      <point x="857" y="252" type="curve" smooth="yes"/>
      <point x="669" y="252"/>
      <point x="561" y="403"/>
      <point x="561" y="597" type="curve" smooth="yes"/>
      <point x="561" y="841"/>
      <point x="711" y="1091"/>
      <point x="995" y="1091" type="curve" smooth="yes"/>
      <point x="1091" y="1091"/>
      <point x="1222" y="1063"/>
      <point x="1308" y="1020" type="curve"/>
      <point x="1280" y="820"/>
      <point x="1243" y="637"/>
      <point x="1243" y="514" type="curve" smooth="yes"/>
      <point x="1243" y="433"/>
      <point x="1301" y="374"/>
      <point x="1376" y="374" type="curve" smooth="yes"/>
      <point x="1493" y="374"/>
      <point x="1618" y="511"/>
      <point x="1618" y="780" type="curve" smooth="yes"/>
      <point x="1618" y="1111"/>
      <point x="1409" y="1370"/>
      <point x="981" y="1370" type="curve" smooth="yes"/>
      <point x="546" y="1370"/>
      <point x="272" y="1049"/>
      <point x="272" y="634" type="curve" smooth="yes"/>
      <point x="272" y="239"/>
      <point x="504" y="-31"/>
      <point x="924" y="-31" type="curve" smooth="yes"/>
      <point x="1088" y="-31"/>
      <point x="1256" y="-1"/>
      <point x="1391" y="83" type="curve"/>
      <point x="1433" y="-17" type="line"/>
      <point x="1305" y="-103"/>
      <point x="1112" y="-151"/>
    </contour>
  </outline>
</glyph>
<glyph name="C" format="1">
  <advance width="1292"/>
  <unicode hex="0043"/>
  <outline>
    <contour>
      <point x="815" y="-19" type="curve" smooth="yes"/>
      <point x="409" y="-19"/>
      <point x="120" y="274"/>
      <point x="120" y="735" type="curve" smooth="yes"/>
      <point x="120" y="1174"/>
      <point x="390" y="1480"/>
      <point x="806" y="1480" type="curve" smooth="yes"/>
      <point x="976" y="1480"/>
      <point x="1117" y="1434"/>
      <point x="1209" y="1368" type="curve"/>
      <point x="1151" y="1253" type="line"/>
      <point x="1063" y="1308"/>
      <point x="940" y="1341"/>
      <point x="821" y="1341" type="curve" smooth="yes"/>
      <point x="491" y="1341"/>
      <point x="297" y="1086"/>
      <point x="297" y="729" type="curve" smooth="yes"/>
      <point x="297" y="368"/>
      <point x="499" y="121"/>
      <point x="834" y="121" type="curve" smooth="yes"/>
      <point x="992" y="121"/>
      <point x="1110" y="175"/>
      <point x="1159" y="198" type="curve"/>
      <point x="1200" y="67" type="line"/>
      <point x="1147" y="40"/>
      <point x="1009" y="-19"/>
    </contour>
  </outline>
</glyph>
<glyph name="D" format="1">
  <advance width="1480"/>
  <unicode hex="0044"/>
  <outline>
    <contour>
      <point x="164" y="0" type="line"/>
      <point x="164" y="1460" type="line"/>
      <point x="578" y="1460" type="line" smooth="yes"/>
      <point x="1041" y="1460"/>
      <point x="1360" y="1234"/>
      <point x="1360" y="734" type="curve" smooth="yes"/>
      <point x="1360" y="259"/>
      <point x="1069" y="0"/>
      <point x="607" y="0" type="curve" smooth="yes"/>
    </contour>
    <contour>
      <point x="340" y="1328" type="line"/>
      <point x="340" y="134" type="line"/>
      <point x="597" y="134" type="line" smooth="yes"/>
      <point x="988" y="134"/>
      <point x="1184" y="342"/>
      <point x="1184" y="729" type="curve" smooth="yes"/>
      <point x="1184" y="1153"/>
      <point x="959" y="1328"/>
      <point x="570" y="1328" type="curve" smooth="yes"/>
    </contour>
  </outline>
</glyph>
<glyph name="E" format="1">
  <advance width="1133"/>
  <unicode hex="0045"/>
  <outline>
    <contour>
      <point x="164" y="0" type="line"/>
      <point x="164" y="1460" type="line"/>
      <point x="1046" y="1460" type="line"/>
      <point x="1040" y="1328" type="line"/>
      <point x="340" y="1328" type="line"/>
      <point x="340" y="821" type="line"/>
      <point x="978" y="821" type="line"/>
      <point x="978" y="689" type="line"/>
      <point x="340" y="689" type="line"/>
      <point x="340" y="134" type="line"/>
      <point x="1061" y="134" type="line"/>
      <point x="1049" y="0" type="line"/>
    </contour>
  </outline>
</glyph>
<glyph name="F" format="1">
  <advance width="1062"/>
  <unicode hex="0046"/>
  <outline>
    <contour>
      <point x="164" y="0" type="line"/>
      <point x="164" y="1460" type="line"/>
      <point x="989" y="1460" type="line"/>
      <point x="979" y="1325" type="line"/>
      <point x="343" y="1325" type="line"/>
      <point x="343" y="797" type="line"/>
      <point x="935" y="797" type="line"/>
      <point x="935" y="669" type="line"/>
      <point x="343" y="669" type="line"/>
      <point x="343" y="0" type="line"/>
    </contour>
  </outline>
</glyph>
<glyph name="G" format="1">
  <advance width="1449"/>
  <unicode hex="0047"/>
  <outline>
    <contour>
      <point x="806" y="-19" type="curve" smooth="yes"/>
      <point x="357" y="-19"/>
      <point x="120" y="305"/>
      <point x="120" y="728" type="curve" smooth="yes"/>
      <point x="120" y="1157"/>
      <point x="396" y="1480"/>
      <point x="835" y="1480" type="curve" smooth="yes"/>
      <point x="1003" y="1480"/>
      <point x="1147" y="1449"/>
      <point x="1265" y="1367" type="curve"/>
      <point x="1222" y="1235" type="line"/>
      <point x="1148" y="1276"/>
      <point x="1050" y="1342"/>
      <point x="838" y="1342" type="curve" smooth="yes"/>
      <point x="496" y="1342"/>
      <point x="297" y="1074"/>
      <point x="297" y="729" type="curve" smooth="yes"/>
      <point x="297" y="369"/>
      <point x="452" y="121"/>
      <point x="837" y="121" type="curve" smooth="yes"/>
      <point x="968" y="121"/>
      <point x="1073" y="143"/>
      <point x="1141" y="164" type="curve"/>
      <point x="1141" y="605" type="line"/>
      <point x="816" y="605" type="line"/>
      <point x="823" y="745" type="line"/>
      <point x="1304" y="745" type="line"/>
      <point x="1304" y="71" type="line"/>
      <point x="1157" y="14"/>
      <point x="1002" y="-19"/>
    </contour>
  </outline>
</glyph>
<glyph name="J" format="1">
  <advance width="713"/>
  <unicode hex="004A"/>
  <outline>
    <contour>
      <point x="112" y="-168" type="curve" smooth="yes"/>
      <point x="36" y="-176" type="line"/>
      <point x="20" y="-35" type="line"/>
      <point x="100" y="-23" type="line" smooth="yes"/>
      <point x="306" y="8"/>
      <point x="370" y="78"/>
      <point x="370" y="271" type="curve" smooth="yes"/>
      <point x="370" y="1460" type="line"/>
      <point x="547" y="1460" type="line"/>
      <point x="547" y="296" type="line" smooth="yes"/>
      <point x="547" y="-4"/>
      <point x="437" y="-134"/>
    </contour>
  </outline>
</glyph>
<glyph name="K" format="1">
  <advance width="1256"/>
  <unicode hex="004B"/>
  <outline>
    <contour>
      <point x="164" y="0" type="line"/>
      <point x="164" y="1460" type="line"/>
      <point x="340" y="1460" type="line"/>
      <point x="340" y="761" type="line"/>
      <point x="994" y="1460" type="line"/>
      <point x="1200" y="1460" type="line"/>
      <point x="602" y="811" type="line"/>
      <point x="1230" y="0" type="line"/>
      <point x="1024" y="0" type="line"/>
      <point x="470" y="721" type="line"/>
      <point x="340" y="601" type="line"/>
      <point x="340" y="0" type="line"/>
    </contour>
  </outline>
</glyph>
<glyph name="L" format="1">
  <advance width="1066"/>
  <unicode hex="004C"/>
  <outline>
    <contour>
      <point x="164" y="0" type="line"/>
      <point x="164" y="1460" type="line"/>
      <point x="340" y="1460" type="line"/>
      <point x="340" y="134" type="line"/>
      <point x="1014" y="134" type="line"/>
      <point x="1010" y="0" type="line"/>
    </contour>
  </outline>
</glyph>
<glyph name="N" format="1">
  <advance width="1488"/>
  <unicode hex="004E"/>
  <outline>
    <contour>
      <point x="164" y="0" type="line"/>
      <point x="164" y="1460" type="line"/>
      <point x="338" y="1460" type="line"/>
      <point x="1171" y="217" type="line"/>
      <point x="1162" y="628" type="line"/>
      <point x="1162" y="1460" type="line"/>
      <point x="1324" y="1460" type="line"/>
      <point x="1324" y="0" type="line"/>
      <point x="1143" y="0" type="line"/>
      <point x="313" y="1235" type="line"/>
      <point x="327" y="781" type="line"/>
      <point x="327" y="0" type="line"/>
    </contour>
  </outline>
</glyph>
<glyph name="P" format="1">
  <advance width="1194"/>
  <unicode hex="0050"/>
  <outline>
    <contour>
      <point x="164" y="0" type="line"/>
      <point x="164" y="1460" type="line"/>
      <point x="659" y="1460" type="line" smooth="yes"/>
      <point x="930" y="1460"/>
      <point x="1129" y="1367"/>
      <point x="1129" y="1103" type="curve" smooth="yes"/>
      <point x="1129" y="849"/>
      <point x="994" y="706"/>
      <point x="656" y="706" type="curve" smooth="yes"/>
      <point x="340" y="706" type="line"/>
      <point x="340" y="0" type="line"/>
    </contour>
    <contour>
      <point x="340" y="1328" type="line"/>
      <point x="340" y="841" type="line"/>
      <point x="652" y="841" type="line" smooth="yes"/>
      <point x="869" y="841"/>
      <point x="953" y="908"/>
      <point x="953" y="1101" type="curve" smooth="yes"/>
      <point x="953" y="1274"/>
      <point x="838" y="1328"/>
      <point x="658" y="1328" type="curve" smooth="yes"/>
    </contour>
  </outline>
</glyph>
<glyph name="T" format="1">
  <advance width="1115"/>
  <unicode hex="0054"/>
  <outline>
    <contour>
      <point x="468" y="0" type="line"/>
      <point x="468" y="1326" type="line"/>
      <point x="34" y="1326" type="line"/>
      <point x="34" y="1460" type="line"/>
      <point x="1081" y="1460" type="line"/>
      <point x="1081" y="1326" type="line"/>
      <point x="644" y="1326" type="line"/>
      <point x="644" y="0" type="line"/>
    </contour>
  </outline>
</glyph>
<glyph name="V" format="1">
  <advance width="1352"/>
  <unicode hex="0056"/>
  <outline>
    <contour>
      <point x="599" y="0" type="line"/>
      <point x="60" y="1460" type="line"/>
      <point x="242" y="1460" type="line"/>
      <point x="387" y="1045"/>
      <point x="528" y="626"/>
      <point x="677" y="215" type="curve"/>
      <point x="824" y="628"/>
      <point x="966" y="1045"/>
      <point x="1111" y="1460" type="curve"/>
      <point x="1292" y="1460" type="line"/>
      <point x="753" y="0" type="line"/>
    </contour>
  </outline>
</glyph>
<glyph name="W" format="1">
  <advance width="2049"/>
  <unicode hex="0057"/>
  <outline>
    <contour>
      <point x="489" y="0" type="line"/>
      <point x="50" y="1460" type="line"/>
      <point x="217" y="1460" type="line"/>
      <point x="576" y="223" type="line"/>
      <point x="940" y="1429" type="line"/>
      <point x="1110" y="1429" type="line"/>
      <point x="1473" y="224" type="line"/>
      <point x="1829" y="1460" type="line"/>
      <point x="1999" y="1460" type="line"/>
      <point x="1560" y="0" type="line"/>
      <point x="1389" y="0" type="line"/>
      <point x="1027" y="1219" type="line"/>
      <point x="656" y="0" type="line"/>
    </contour>
  </outline>
</glyph>
<glyph name="Z" format="1">
  <advance width="1224"/>
  <unicode hex="005A"/>
  <outline>
    <contour>
      <point x="149" y="0" type="line"/>
      <point x="149" y="124" type="line"/>
      <point x="902" y="1328" type="line"/>
      <point x="182" y="1328" type="line"/>
      <point x="182" y="1460" type="line"/>
      <point x="1091" y="1460" type="line"/>
      <point x="1098" y="1339" type="line"/>
      <point x="349" y="134" type="line"/>
      <point x="1105" y="134" type="line"/>
      <point x="1097" y="0" type="line"/>
    </contour>
  </outline>
</glyph>
<glyph name="bracketleft" format="1">
  <advance width="674"/>
  <unicode hex="005B"/>
  <outline>
    <contour>
      <point x="171" y="-255" type="line"/>
      <point x="171" y="1460" type="line"/>
      <point x="635" y="1460" type="line"/>
      <point x="635" y="1342" type="line"/>
      <point x="347" y="1342" type="line"/>
      <point x="347" y="-138" type="line"/>
      <point x="635" y="-138" type="line"/>
      <point x="635" y="-255" type="line"/>
    </contour>
  </outline>
</glyph>
<glyph name="bracketright" format="1">
  <advance width="676"/>
  <unicode hex="005D"/>
  <outline>
    <contour>
      <point x="58" y="-255" type="line"/>
      <point x="58" y="-138" type="line"/>
      <point x="346" y="-138" type="line"/>
      <point x="346" y="1342" type="line"/>
      <point x="58" y="1342" type="line"/>
      <point x="58" y="1460" type="line"/>
      <point x="522" y="1460" type="line"/>
      <point x="522" y="-255" type="line"/>
    </contour>
  </outline>
</glyph>
<glyph name="grave" format="1">
  <advance width="650"/>
  <unicode hex="0060"/>
  <outline>
    <contour>
      <point x="414" y="1058" type="line"/>
      <point x="144" y="1460" type="line"/>
      <point x="332" y="1460" type="line"/>
      <point x="508" y="1058" type="line"/>
    </contour>
  </outline>
</glyph>
<glyph name="a" format="1">
  <advance width="1050"/>
  <unicode hex="0061"/>
  <outline>
    <contour>
      <point x="430" y="101" type="curve" smooth="yes"/>
      <point x="564" y="101"/>
      <point x="674" y="158"/>
      <point x="754" y="276" type="curve"/>
      <point x="754" y="509" type="line"/>
      <point x="627" y="509" type="line" smooth="yes"/>
      <point x="319" y="509"/>
      <point x="255" y="438"/>
      <point x="255" y="285" type="curve" smooth="yes"/>
      <point x="255" y="162"/>
      <point x="336" y="101"/>
    </contour>
    <contour>
      <point x="754" y="619" type="line"/>
      <point x="754" y="723" type="line" smooth="yes"/>
      <point x="754" y="875"/>
      <point x="686" y="953"/>
      <point x="523" y="953" type="curve" smooth="yes"/>
      <point x="419" y="953"/>
      <point x="283" y="927"/>
      <point x="183" y="879" type="curve"/>
      <point x="138" y="1001" type="line"/>
      <point x="252" y="1054"/>
      <point x="398" y="1080"/>
      <point x="520" y="1080" type="curve" smooth="yes"/>
      <point x="761" y="1080"/>
      <point x="918" y="981"/>
      <point x="918" y="699" type="curve" smooth="yes"/>
      <point x="918" y="1" type="line"/>
      <point x="792" y="1" type="line"/>
      <point x="774" y="147" type="line"/>
      <point x="668" y="17"/>
      <point x="542" y="-20"/>
      <point x="420" y="-20" type="curve" smooth="yes"/>
      <point x="229" y="-20"/>
      <point x="97" y="90"/>
      <point x="97" y="286" type="curve" smooth="yes"/>
      <point x="97" y="513"/>
      <point x="242" y="619"/>
      <point x="585" y="619" type="curve" smooth="yes"/>
    </contour>
  </outline>
</glyph>
<glyph name="b" format="1">
  <advance width="1165"/>
  <unicode hex="0062"/>
  <outline>
    <contour>
      <point x="613" y="107" type="curve" smooth="yes"/>
      <point x="825" y="107"/>
      <point x="909" y="268"/>
      <point x="909" y="528" type="curve" smooth="yes"/>
      <point x="909" y="779"/>
      <point x="836" y="954"/>
      <point x="621" y="954" type="curve" smooth="yes"/>
      <point x="394" y="954"/>
      <point x="300" y="792"/>
      <point x="300" y="545" type="curve" smooth="yes"/>
      <point x="300" y="254"/>
      <point x="415" y="107"/>
    </contour>
    <contour>
      <point x="629" y="-20" type="curve" smooth="yes"/>
      <point x="459" y="-20"/>
      <point x="348" y="84"/>
      <point x="286" y="186" type="curve"/>
      <point x="271" y="0" type="line"/>
      <point x="136" y="0" type="line"/>
      <point x="136" y="1460" type="line"/>
      <point x="304" y="1472" type="line"/>
      <point x="304" y="1078" type="line"/>
      <point x="303" y="894" type="line"/>
      <point x="374" y="1002"/>
      <point x="489" y="1080"/>
      <point x="637" y="1080" type="curve" smooth="yes"/>
      <point x="936" y="1080"/>
      <point x="1079" y="858"/>
      <point x="1079" y="528" type="curve" smooth="yes"/>
      <point x="1079" y="199"/>
      <point x="924" y="-20"/>
    </contour>
  </outline>
</glyph>
<glyph name="c" format="1">
  <advance width="935"/>
  <unicode hex="0063"/>
  <outline>
    <contour>
      <point x="611" y="108" type="curve" smooth="yes"/>
      <point x="697" y="108"/>
      <point x="782" y="136"/>
      <point x="834" y="166" type="curve"/>
      <point x="865" y="53" type="line"/>
      <point x="827" y="23"/>
      <point x="722" y="-20"/>
      <point x="580" y="-20" type="curve" smooth="yes"/>
      <point x="276" y="-20"/>
      <point x="84" y="195"/>
      <point x="84" y="524" type="curve" smooth="yes"/>
      <point x="84" y="876"/>
      <point x="293" y="1080"/>
      <point x="581" y="1080" type="curve" smooth="yes"/>
      <point x="740" y="1080"/>
      <point x="843" y="1026"/>
      <point x="869" y="1008" type="curve"/>
      <point x="822" y="894" type="line"/>
      <point x="812" y="900"/>
      <point x="729" y="952"/>
      <point x="601" y="952" type="curve" smooth="yes"/>
      <point x="393" y="952"/>
      <point x="254" y="786"/>
      <point x="254" y="524" type="curve" smooth="yes"/>
      <point x="254" y="287"/>
      <point x="369" y="108"/>
    </contour>
  </outline>
</glyph>
<glyph name="e" format="1">
  <advance width="1068"/>
  <unicode hex="0065"/>
  <outline>
    <contour>
      <point x="585" y="-20" type="curve" smooth="yes"/>
      <point x="292" y="-20"/>
      <point x="84" y="185"/>
      <point x="84" y="524" type="curve" smooth="yes"/>
      <point x="84" y="869"/>
      <point x="292" y="1080"/>
      <point x="566" y="1080" type="curve" smooth="yes"/>
      <point x="835" y="1080"/>
      <point x="974" y="891"/>
      <point x="974" y="587" type="curve" smooth="yes"/>
      <point x="974" y="561"/>
      <point x="968" y="503"/>
      <point x="968" y="503" type="curve"/>
      <point x="253" y="503" type="line"/>
      <point x="264" y="222"/>
      <point x="411" y="106"/>
      <point x="604" y="106" type="curve" smooth="yes"/>
      <point x="724" y="106"/>
      <point x="810" y="141"/>
      <point x="907" y="190" type="curve"/>
      <point x="942" y="73" type="line"/>
      <point x="844" y="15"/>
      <point x="738" y="-20"/>
    </contour>
    <contour>
      <point x="834" y="611" type="line"/>
      <point x="826" y="836"/>
      <point x="738" y="953"/>
      <point x="570" y="953" type="curve" smooth="yes"/>
      <point x="399" y="953"/>
      <point x="277" y="822"/>
      <point x="258" y="611" type="curve"/>
    </contour>
  </outline>
</glyph>
<glyph name="f" format="1">
  <advance width="698"/>
  <unicode hex="0066"/>
  <outline>
    <contour>
      <point x="223" y="0" type="line"/>
      <point x="223" y="953" type="line"/>
      <point x="31" y="953" type="line"/>
      <point x="36" y="1040" type="line"/>
      <point x="223" y="1057" type="line"/>
      <point x="223" y="1124" type="line" smooth="yes"/>
      <point x="223" y="1392"/>
      <point x="327" y="1480"/>
      <point x="512" y="1480" type="curve" smooth="yes"/>
      <point x="586" y="1480"/>
      <point x="635" y="1467"/>
      <point x="656" y="1463" type="curve"/>
      <point x="644" y="1348" type="line"/>
      <point x="634" y="1350"/>
      <point x="588" y="1358"/>
      <point x="542" y="1358" type="curve" smooth="yes"/>
      <point x="441" y="1358"/>
      <point x="389" y="1334"/>
      <point x="389" y="1134" type="curve" smooth="yes"/>
      <point x="389" y="1058" type="line"/>
      <point x="640" y="1058" type="line"/>
      <point x="640" y="953" type="line"/>
      <point x="389" y="953" type="line"/>
      <point x="389" y="0" type="line"/>
    </contour>
  </outline>
</glyph>
<glyph name="h" format="1">
  <advance width="1131"/>
  <unicode hex="0068"/>
  <outline>
    <contour>
      <point x="134" y="0" type="line"/>
      <point x="134" y="1460" type="line"/>
      <point x="300" y="1472" type="line"/>
      <point x="300" y="1118" type="line"/>
      <point x="294" y="911" type="line"/>
      <point x="371" y="1020"/>
      <point x="496" y="1080"/>
      <point x="646" y="1080" type="curve" smooth="yes"/>
      <point x="878" y="1080"/>
      <point x="1003" y="925"/>
      <point x="1003" y="654" type="curve" smooth="yes"/>
      <point x="1003" y="0" type="line"/>
      <point x="837" y="0" type="line"/>
      <point x="837" y="648" type="line" smooth="yes"/>
      <point x="837" y="852"/>
      <point x="779" y="954"/>
      <point x="617" y="954" type="curve" smooth="yes"/>
      <point x="363" y="954"/>
      <point x="299" y="763"/>
      <point x="299" y="579" type="curve" smooth="yes"/>
      <point x="299" y="0" type="line"/>
    </contour>
  </outline>
</glyph>
<glyph name="i" format="1">
  <advance width="494"/>
  <unicode hex="0069"/>
  <outline>
    <contour>
      <point x="164" y="0" type="line"/>
      <point x="164" y="1058" type="line"/>
      <point x="328" y="1058" type="line"/>
      <point x="328" y="0" type="line"/>
    </contour>
    <contour>
      <point x="247" y="1460" type="curve" smooth="yes"/>
      <point x="310" y="1460"/>
      <point x="356" y="1417"/>
      <point x="356" y="1354" type="curve" smooth="yes"/>
      <point x="356" y="1291"/>
      <point x="310" y="1247"/>
      <point x="247" y="1247" type="curve" smooth="yes"/>
      <point x="183" y="1247"/>
      <point x="138" y="1291"/>
      <point x="138" y="1354" type="curve" smooth="yes"/>
      <point x="138" y="1417"/>
      <point x="183" y="1460"/>
    </contour>
  </outline>
</glyph>
<glyph name="j" format="1">
  <advance width="545"/>
  <unicode hex="006A"/>
  <outline>
    <contour>
      <point x="298" y="1460" type="curve" smooth="yes"/>
      <point x="361" y="1460"/>
      <point x="407" y="1417"/>
      <point x="407" y="1354" type="curve" smooth="yes"/>
      <point x="407" y="1291"/>
      <point x="361" y="1247"/>
      <point x="298" y="1247" type="curve" smooth="yes"/>
      <point x="234" y="1247"/>
      <point x="189" y="1291"/>
      <point x="189" y="1354" type="curve" smooth="yes"/>
      <point x="189" y="1417"/>
      <point x="234" y="1460"/>
    </contour>
    <contour>
      <point x="20" y="-378" type="line"/>
      <point x="1" y="-250" type="line"/>
      <point x="63" y="-238" type="line" smooth="yes"/>
      <point x="212" y="-209"/>
      <point x="215" y="-174"/>
      <point x="215" y="11" type="curve" smooth="yes"/>
      <point x="215" y="1058" type="line"/>
      <point x="382" y="1058" type="line"/>
      <point x="382" y="-19" type="line" smooth="yes"/>
      <point x="382" y="-272"/>
      <point x="299" y="-345"/>
      <point x="79" y="-371" type="curve" smooth="yes"/>
    </contour>
  </outline>
</glyph>
<glyph name="m" format="1">
  <advance width="1705"/>
  <unicode hex="006D"/>
  <outline>
    <contour>
      <point x="132" y="0" type="line"/>
      <point x="132" y="1058" type="line"/>
      <point x="266" y="1058" type="line"/>
      <point x="285" y="902" type="line"/>
      <point x="358" y="1008"/>
      <point x="465" y="1080"/>
      <point x="611" y="1080" type="curve" smooth="yes"/>
      <point x="784" y="1080"/>
      <point x="860" y="984"/>
      <point x="904" y="865" type="curve"/>
      <point x="976" y="995"/>
      <point x="1090" y="1080"/>
      <point x="1253" y="1080" type="curve" smooth="yes"/>
      <point x="1473" y="1080"/>
      <point x="1577" y="941"/>
      <point x="1577" y="682" type="curve" smooth="yes"/>
      <point x="1577" y="0" type="line"/>
      <point x="1411" y="0" type="line"/>
      <point x="1411" y="630" type="line" smooth="yes"/>
      <point x="1411" y="781"/>
      <point x="1406" y="953"/>
      <point x="1227" y="953" type="curve" smooth="yes"/>
      <point x="1105" y="953"/>
      <point x="992" y="872"/>
      <point x="954" y="708" type="curve"/>
      <point x="946" y="680"/>
      <point x="945" y="626"/>
      <point x="943" y="543" type="curve"/>
      <point x="943" y="0" type="line"/>
      <point x="777" y="0" type="line"/>
      <point x="777" y="594" type="line" smooth="yes"/>
      <point x="777" y="843"/>
      <point x="736" y="953"/>
      <point x="584" y="953" type="curve" smooth="yes"/>
      <point x="414" y="953"/>
      <point x="324" y="819"/>
      <point x="298" y="645" type="curve"/>
      <point x="298" y="0" type="line"/>
    </contour>
  </outline>
</glyph>
<glyph name="n" format="1">
  <advance width="1133"/>
  <unicode hex="006E"/>
  <outline>
    <contour>
      <point x="132" y="0" type="line"/>
      <point x="132" y="1058" type="line"/>
      <point x="276" y="1058" type="line"/>
      <point x="294" y="912" type="line"/>
      <point x="367" y="1014"/>
      <point x="482" y="1080"/>
      <point x="653" y="1080" type="curve" smooth="yes"/>
      <point x="897" y="1080"/>
      <point x="1007" y="935"/>
      <point x="1007" y="647" type="curve" smooth="yes"/>
      <point x="1007" y="0" type="line"/>
      <point x="841" y="0" type="line"/>
      <point x="841" y="665" type="line" smooth="yes"/>
      <point x="841" y="843"/>
      <point x="794" y="953"/>
      <point x="624" y="953" type="curve" smooth="yes"/>
      <point x="368" y="953"/>
      <point x="298" y="782"/>
      <point x="298" y="590" type="curve" smooth="yes"/>
      <point x="298" y="0" type="line"/>
    </contour>
  </outline>
</glyph>
<glyph name="p" format="1">
  <advance width="1156"/>
  <unicode hex="0070"/>
  <outline>
    <contour>
      <point x="604" y="107" type="curve" smooth="yes"/>
      <point x="814" y="107"/>
      <point x="900" y="271"/>
      <point x="900" y="528" type="curve" smooth="yes"/>
      <point x="900" y="772"/>
      <point x="828" y="953"/>
      <point x="614" y="953" type="curve" smooth="yes"/>
      <point x="387" y="953"/>
      <point x="292" y="789"/>
      <point x="291" y="545" type="curve"/>
      <point x="291" y="269"/>
      <point x="403" y="107"/>
    </contour>
    <contour>
      <point x="132" y="-464" type="line"/>
      <point x="132" y="1058" type="line"/>
      <point x="270" y="1058" type="line"/>
      <point x="287" y="873" type="line"/>
      <point x="358" y="999"/>
      <point x="472" y="1080"/>
      <point x="633" y="1080" type="curve" smooth="yes"/>
      <point x="926" y="1080"/>
      <point x="1070" y="857"/>
      <point x="1070" y="526" type="curve" smooth="yes"/>
      <point x="1070" y="205"/>
      <point x="913" y="-20"/>
      <point x="630" y="-20" type="curve" smooth="yes"/>
      <point x="461" y="-20"/>
      <point x="354" y="73"/>
      <point x="291" y="179" type="curve"/>
      <point x="298" y="-66" type="line"/>
      <point x="298" y="-464" type="line"/>
    </contour>
  </outline>
</glyph>
<glyph name="r" format="1">
  <advance width="730"/>
  <unicode hex="0072"/>
  <outline>
    <contour>
      <point x="138" y="0" type="line"/>
      <point x="138" y="1058" type="line"/>
      <point x="271" y="1058" type="line"/>
      <point x="289" y="848" type="line"/>
      <point x="374" y="1009"/>
      <point x="500" y="1069"/>
      <point x="618" y="1069" type="curve" smooth="yes"/>
      <point x="648" y="1069"/>
      <point x="669" y="1068"/>
      <point x="692" y="1064" type="curve"/>
      <point x="685" y="928" type="line"/>
      <point x="660" y="933"/>
      <point x="639" y="936"/>
      <point x="617" y="936" type="curve" smooth="yes"/>
      <point x="432" y="936"/>
      <point x="304" y="783"/>
      <point x="304" y="599" type="curve" smooth="yes"/>
      <point x="304" y="0" type="line"/>
    </contour>
  </outline>
</glyph>
<glyph name="s" format="1">
  <advance width="890"/>
  <unicode hex="0073"/>
  <outline>
    <contour>
      <point x="259" y="795" type="curve" smooth="yes"/>
      <point x="259" y="708"/>
      <point x="290" y="682"/>
      <point x="426" y="639" type="curve" smooth="yes"/>
      <point x="531" y="606" type="line" smooth="yes"/>
      <point x="768" y="532"/>
      <point x="821" y="451"/>
      <point x="821" y="288" type="curve" smooth="yes"/>
      <point x="821" y="70"/>
      <point x="654" y="-20"/>
      <point x="460" y="-20" type="curve" smooth="yes"/>
      <point x="350" y="-20"/>
      <point x="232" y="9"/>
      <point x="129" y="58" type="curve"/>
      <point x="129" y="197" type="line"/>
      <point x="252" y="138"/>
      <point x="356" y="106"/>
      <point x="472" y="106" type="curve" smooth="yes"/>
      <point x="599" y="106"/>
      <point x="674" y="170"/>
      <point x="674" y="291" type="curve" smooth="yes"/>
      <point x="674" y="370"/>
      <point x="630" y="423"/>
      <point x="471" y="474" type="curve" smooth="yes"/>
      <point x="355" y="511" type="line" smooth="yes"/>
      <point x="154" y="575"/>
      <point x="106" y="663"/>
      <point x="106" y="792" type="curve" smooth="yes"/>
      <point x="106" y="960"/>
      <point x="229" y="1080"/>
      <point x="456" y="1080" type="curve" smooth="yes"/>
      <point x="582" y="1080"/>
      <point x="688" y="1051"/>
      <point x="779" y="1006" type="curve"/>
      <point x="740" y="883" type="line"/>
      <point x="681" y="913"/>
      <point x="584" y="953"/>
      <point x="473" y="953" type="curve" smooth="yes"/>
      <point x="312" y="953"/>
      <point x="259" y="892"/>
    </contour>
  </outline>
</glyph>
<glyph name="u" format="1">
  <advance width="1125"/>
  <unicode hex="0075"/>
  <outline>
    <contour>
      <point x="992" y="1058" type="line"/>
      <point x="992" y="0" type="line"/>
      <point x="848" y="0" type="line"/>
      <point x="831" y="139" type="line"/>
      <point x="768" y="40"/>
      <point x="682" y="-20"/>
      <point x="499" y="-20" type="curve" smooth="yes"/>
      <point x="255" y="-20"/>
      <point x="126" y="124"/>
      <point x="126" y="412" type="curve" smooth="yes"/>
      <point x="126" y="1058" type="line"/>
      <point x="292" y="1058" type="line"/>
      <point x="292" y="394" type="line" smooth="yes"/>
      <point x="292" y="216"/>
      <point x="349" y="107"/>
      <point x="519" y="107" type="curve" smooth="yes"/>
      <point x="756" y="107"/>
      <point x="826" y="262"/>
      <point x="826" y="464" type="curve" smooth="yes"/>
      <point x="826" y="1058" type="line"/>
    </contour>
  </outline>
</glyph>
<glyph name="x" format="1">
  <advance width="1036"/>
  <unicode hex="0078"/>
  <outline>
    <contour>
      <point x="817" y="0" type="line"/>
      <point x="514" y="425" type="line"/>
      <point x="201" y="0" type="line"/>
      <point x="34" y="0" type="line"/>
      <point x="429" y="543" type="line"/>
      <point x="61" y="1058" type="line"/>
      <point x="246" y="1058" type="line"/>
      <point x="540" y="647" type="line"/>
      <point x="830" y="1058" type="line"/>
      <point x="998" y="1058" type="line"/>
      <point x="620" y="535" type="line"/>
      <point x="1002" y="0" type="line"/>
    </contour>
  </outline>
</glyph>
<glyph name="z" format="1">
  <advance width="923"/>
  <unicode hex="007A"/>
  <outline>
    <contour>
      <point x="114" y="0" type="line"/>
      <point x="114" y="107" type="line"/>
      <point x="652" y="939" type="line"/>
      <point x="141" y="939" type="line"/>
      <point x="135" y="1058" type="line"/>
      <point x="825" y="1058" type="line"/>
      <point x="825" y="944" type="line"/>
      <point x="297" y="124" type="line"/>
      <point x="830" y="124" type="line"/>
      <point x="834" y="0" type="line"/>
    </contour>
  </outline>
</glyph>
<glyph name="asciitilde" format="1">
  <advance width="1204"/>
  <unicode hex="007E"/>
  <outline>
    <contour>
      <point x="155" y="491" type="curve"/>
      <point x="114" y="585" type="line"/>
      <point x="159" y="693"/>
      <point x="245" y="778"/>
      <point x="373" y="778" type="curve" smooth="yes"/>
      <point x="452" y="778"/>
      <point x="509" y="755"/>
      <point x="609" y="711" type="curve"/>
      <point x="704" y="671"/>
      <point x="783" y="632"/>
      <point x="843" y="632" type="curve" smooth="yes"/>
      <point x="925" y="632"/>
      <point x="1005" y="704"/>
      <point x="1043" y="788" type="curve"/>
      <point x="1090" y="701" type="line"/>
      <point x="1041" y="580"/>
      <point x="964" y="505"/>
      <point x="841" y="505" type="curve" smooth="yes"/>
      <point x="772" y="505"/>
      <point x="700" y="533"/>
      <point x="619" y="569" type="curve" smooth="yes"/>
      <point x="515" y="615"/>
      <point x="440" y="649"/>
      <point x="370" y="649" type="curve" smooth="yes"/>
      <point x="282" y="649"/>
      <point x="201" y="577"/>
    </contour>
  </outline>
</glyph>
<glyph name="cent" format="1">
  <advance width="982"/>
  <unicode hex="00A2"/>
  <outline>
    <component base="c"/>
    <contour>
      <point x="609" y="1340" type="line"/>
      <point x="662" y="1009" type="line"/>
      <point x="505" y="1009" type="line"/>
      <point x="543" y="1340" type="line"/>
    </contour>
    <contour>
      <point x="548" y="-278" type="line"/>
      <point x="495" y="53" type="line"/>
      <point x="652" y="53" type="line"/>
      <point x="614" y="-278" type="line"/>
    </contour>
  </outline>
</glyph>
<glyph name="sterling" format="1">
  <advance width="1204"/>
  <unicode hex="00A3"/>
  <outline>
    <contour>
      <point x="155" y="0" type="line"/>
      <point x="143" y="112" type="line"/>
      <point x="315" y="129" type="line"/>
      <point x="315" y="666" type="line"/>
      <point x="143" y="666" type="line"/>
      <point x="143" y="786" type="line"/>
      <point x="315" y="786" type="line"/>
      <point x="315" y="938" type="line" smooth="yes"/>
      <point x="315" y="1194"/>
      <point x="380" y="1480"/>
      <point x="733" y="1480" type="curve" smooth="yes"/>
      <point x="877" y="1480"/>
      <point x="989" y="1426"/>
      <point x="1074" y="1354" type="curve"/>
      <point x="1006" y="1239" type="line"/>
      <point x="920" y="1305"/>
      <point x="835" y="1341"/>
      <point x="733" y="1341" type="curve" smooth="yes"/>
      <point x="532" y="1341"/>
      <point x="491" y="1190"/>
      <point x="491" y="966" type="curve" smooth="yes"/>
      <point x="491" y="786" type="line"/>
      <point x="874" y="786" type="line"/>
      <point x="874" y="666" type="line"/>
      <point x="491" y="666" type="line"/>
      <point x="491" y="131" type="line"/>
      <point x="1088" y="131" type="line"/>
      <point x="1075" y="0" type="line"/>
    </contour>
  </outline>
</glyph>
<glyph name="currency" format="1">
  <advance width="1280"/>
  <unicode hex="00A4"/>
  <outline>
    <contour>
      <point x="646" y="394" type="curve" smooth="yes"/>
      <point x="835" y="394"/>
      <point x="952" y="538"/>
      <point x="952" y="707" type="curve" smooth="yes"/>
      <point x="952" y="876"/>
      <point x="834" y="1021"/>
      <point x="646" y="1021" type="curve" smooth="yes"/>
      <point x="459" y="1021"/>
      <point x="341" y="876"/>
      <point x="341" y="707" type="curve" smooth="yes"/>
      <point x="341" y="537"/>
      <point x="459" y="394"/>
    </contour>
    <contour>
      <point x="1086" y="225" type="line"/>
      <point x="905" y="395" type="line"/>
      <point x="834" y="337"/>
      <point x="745" y="305"/>
      <point x="646" y="305" type="curve" smooth="yes"/>
      <point x="546" y="305"/>
      <point x="459" y="336"/>
      <point x="387" y="396" type="curve"/>
      <point x="207" y="226" type="line"/>
      <point x="144" y="291" type="line"/>
      <point x="325" y="463" type="line"/>
      <point x="271" y="534"/>
      <point x="244" y="617"/>
      <point x="244" y="707" type="curve" smooth="yes"/>
      <point x="244" y="796"/>
      <point x="271" y="880"/>
      <point x="325" y="951" type="curve"/>
      <point x="143" y="1125" type="line"/>
      <point x="207" y="1188" type="line"/>
      <point x="386" y="1019" type="line"/>
      <point x="458" y="1079"/>
      <point x="548" y="1111"/>
      <point x="646" y="1111" type="curve" smooth="yes"/>
      <point x="744" y="1111"/>
      <point x="834" y="1077"/>
      <point x="905" y="1018" type="curve"/>
      <point x="1086" y="1188" type="line"/>
      <point x="1147" y="1123" type="line"/>
      <point x="967" y="951" type="line"/>
      <point x="1021" y="877"/>
      <point x="1048" y="794"/>
      <point x="1048" y="707" type="curve" smooth="yes"/>
      <point x="1048" y="615"/>
      <point x="1021" y="532"/>
      <point x="968" y="463" type="curve"/>
      <point x="1146" y="290" type="line"/>
    </contour>
  </outline>
</glyph>
<glyph name="brokenbar" format="1">
  <advance width="334"/>
  <unicode hex="00A6"/>
  <outline>
    <contour>
      <point x="110" y="800" type="line"/>
      <point x="110" y="1540" type="line"/>
      <point x="234" y="1540" type="line"/>
      <point x="234" y="800" type="line"/>
    </contour>
    <contour>
      <point x="110" y="-208" type="line"/>
      <point x="110" y="535" type="line"/>
      <point x="234" y="535" type="line"/>
      <point x="234" y="-208" type="line"/>
    </contour>
  </outline>
</glyph>
<glyph name="section" format="1">
  <advance width="1000"/>
  <unicode hex="00A7"/>
  <outline>
    <contour>
      <point x="317" y="1196" type="curve" smooth="yes"/>
      <point x="317" y="1109"/>
      <point x="348" y="1083"/>
      <point x="484" y="1040" type="curve" smooth="yes"/>
      <point x="589" y="1007" type="line" smooth="yes"/>
      <point x="826" y="933"/>
      <point x="879" y="852"/>
      <point x="879" y="689" type="curve" smooth="yes"/>
      <point x="879" y="605"/>
      <point x="854" y="540"/>
      <point x="812" y="492" type="curve"/>
      <point x="863" y="440"/>
      <point x="879" y="376"/>
      <point x="879" y="288" type="curve" smooth="yes"/>
      <point x="879" y="70"/>
      <point x="712" y="-20"/>
      <point x="518" y="-20" type="curve" smooth="yes"/>
      <point x="408" y="-20"/>
      <point x="290" y="9"/>
      <point x="187" y="58" type="curve"/>
      <point x="187" y="197" type="line"/>
      <point x="310" y="138"/>
      <point x="414" y="106"/>
      <point x="530" y="106" type="curve" smooth="yes"/>
      <point x="657" y="106"/>
      <point x="732" y="170"/>
      <point x="732" y="291" type="curve" smooth="yes"/>
      <point x="732" y="370"/>
      <point x="688" y="423"/>
      <point x="529" y="474" type="curve" smooth="yes"/>
      <point x="413" y="511" type="line" smooth="yes"/>
      <point x="212" y="575"/>
      <point x="164" y="663"/>
      <point x="164" y="792" type="curve" smooth="yes"/>
      <point x="164" y="873"/>
      <point x="193" y="944"/>
      <point x="248" y="994" type="curve"/>
      <point x="183" y="1047"/>
      <point x="164" y="1112"/>
      <point x="164" y="1193" type="curve" smooth="yes"/>
      <point x="164" y="1361"/>
      <point x="287" y="1481"/>
      <point x="514" y="1481" type="curve" smooth="yes"/>
      <point x="640" y="1481"/>
      <point x="746" y="1452"/>
      <point x="837" y="1407" type="curve"/>
      <point x="798" y="1284" type="line"/>
      <point x="739" y="1314"/>
      <point x="642" y="1354"/>
      <point x="531" y="1354" type="curve" smooth="yes"/>
      <point x="370" y="1354"/>
      <point x="317" y="1293"/>
    </contour>
    <contour>
      <point x="382" y="923" type="curve"/>
      <point x="334" y="895"/>
      <point x="317" y="853"/>
      <point x="317" y="795" type="curve" smooth="yes"/>
      <point x="317" y="708"/>
      <point x="348" y="682"/>
      <point x="484" y="639" type="curve" smooth="yes"/>
      <point x="589" y="606" type="line" smooth="yes"/>
      <point x="628" y="594"/>
      <point x="662" y="581"/>
      <point x="692" y="568" type="curve"/>
      <point x="718" y="598"/>
      <point x="732" y="640"/>
      <point x="732" y="692" type="curve" smooth="yes"/>
      <point x="732" y="771"/>
      <point x="688" y="824"/>
      <point x="529" y="875" type="curve" smooth="yes"/>
      <point x="413" y="912" type="line" smooth="yes"/>
      <point x="402" y="915"/>
      <point x="392" y="919"/>
    </contour>
  </outline>
</glyph>
<glyph name="dieresis" format="1">
  <advance width="740"/>
  <unicode hex="00A8"/>
  <outline>
    <contour>
      <point x="153" y="1431" type="curve" smooth="yes"/>
      <point x="216" y="1431"/>
      <point x="264" y="1388"/>
      <point x="264" y="1325" type="curve" smooth="yes"/>
      <point x="264" y="1262"/>
      <point x="216" y="1218"/>
      <point x="153" y="1218" type="curve" smooth="yes"/>
      <point x="89" y="1218"/>
      <point x="42" y="1262"/>
      <point x="42" y="1325" type="curve" smooth="yes"/>
      <point x="42" y="1388"/>
      <point x="89" y="1431"/>
    </contour>
    <contour>
      <point x="698" y="1325" type="curve" smooth="yes"/>
      <point x="698" y="1262"/>
      <point x="650" y="1218"/>
      <point x="587" y="1218" type="curve" smooth="yes"/>
      <point x="523" y="1218"/>
      <point x="476" y="1262"/>
      <point x="476" y="1325" type="curve" smooth="yes"/>
      <point x="476" y="1388"/>
      <point x="523" y="1431"/>
      <point x="587" y="1431" type="curve" smooth="yes"/>
      <point x="650" y="1431"/>
      <point x="698" y="1388"/>
    </contour>
  </outline>
</glyph>
<glyph name="copyright" format="1">
  <advance width="1791"/>
  <unicode hex="00A9"/>
  <outline>
    <contour>
      <point x="893" y="-21" type="curve" smooth="yes"/>
      <point x="517" y="-21"/>
      <point x="139" y="236"/>
      <point x="139" y="730" type="curve" smooth="yes"/>
      <point x="139" y="1225"/>
      <point x="517" y="1481"/>
      <point x="893" y="1481" type="curve" smooth="yes"/>
      <point x="1271" y="1481"/>
      <point x="1652" y="1225"/>
      <point x="1652" y="730" type="curve" smooth="yes"/>
      <point x="1652" y="236"/>
      <point x="1272" y="-21"/>
    </contour>
    <contour>
      <point x="893" y="63" type="curve" smooth="yes"/>
      <point x="1226" y="63"/>
      <point x="1548" y="296"/>
      <point x="1548" y="730" type="curve" smooth="yes"/>
      <point x="1548" y="1164"/>
      <point x="1226" y="1395"/>
      <point x="893" y="1395" type="curve" smooth="yes"/>
      <point x="561" y="1395"/>
      <point x="243" y="1164"/>
      <point x="243" y="730" type="curve" smooth="yes"/>
      <point x="243" y="295"/>
      <point x="561" y="63"/>
    </contour>
    <contour>
      <point x="913" y="234" type="curve" smooth="yes"/>
      <point x="655" y="234"/>
      <point x="438" y="438"/>
      <point x="438" y="727" type="curve" smooth="yes"/>
      <point x="438" y="1008"/>
      <point x="650" y="1220"/>
      <point x="905" y="1220" type="curve" smooth="yes"/>
      <point x="1005" y="1220"/>
      <point x="1103" y="1191"/>
      <point x="1191" y="1130" type="curve"/>
      <point x="1148" y="1043" type="line"/>
      <point x="1075" y="1098"/>
      <point x="981" y="1123"/>
      <point x="909" y="1123" type="curve" smooth="yes"/>
      <point x="716" y="1123"/>
      <point x="559" y="961"/>
      <point x="559" y="732" type="curve" smooth="yes"/>
      <point x="559" y="483"/>
      <point x="717" y="330"/>
      <point x="917" y="330" type="curve" smooth="yes"/>
      <point x="995" y="330"/>
      <point x="1075" y="349"/>
      <point x="1159" y="400" type="curve"/>
      <point x="1194" y="317" type="line"/>
      <point x="1108" y="262"/>
      <point x="1011" y="234"/>
    </contour>
  </outline>
</glyph>
<glyph name="uni00AD" format="1">
  <advance width="957"/>
  <unicode hex="00AD"/>
  <outline>
    <contour>
      <point x="114" y="205" type="line"/>
      <point x="114" y="338" type="line"/>
      <point x="856" y="338" type="line"/>
      <point x="856" y="205" type="line"/>
    </contour>
  </outline>
</glyph>
<glyph name="registered" format="1">
  <advance width="1788"/>
  <unicode hex="00AE"/>
  <outline>
    <contour>
      <point x="893" y="-20" type="curve" smooth="yes"/>
      <point x="518" y="-20"/>
      <point x="142" y="237"/>
      <point x="142" y="730" type="curve" smooth="yes"/>
      <point x="142" y="1222"/>
      <point x="518" y="1480"/>
      <point x="893" y="1480" type="curve" smooth="yes"/>
      <point x="1269" y="1480"/>
      <point x="1646" y="1222"/>
      <point x="1646" y="730" type="curve" smooth="yes"/>
      <point x="1646" y="237"/>
      <point x="1269" y="-20"/>
    </contour>
    <contour>
      <point x="893" y="64" type="curve" smooth="yes"/>
      <point x="1224" y="64"/>
      <point x="1543" y="296"/>
      <point x="1543" y="729" type="curve" smooth="yes"/>
      <point x="1543" y="1161"/>
      <point x="1224" y="1395"/>
      <point x="893" y="1395" type="curve" smooth="yes"/>
      <point x="562" y="1395"/>
      <point x="246" y="1162"/>
      <point x="246" y="730" type="curve" smooth="yes"/>
      <point x="246" y="296"/>
      <point x="562" y="64"/>
    </contour>
    <contour>
      <point x="712" y="820" type="line"/>
      <point x="936" y="820" type="line" smooth="yes"/>
      <point x="1077" y="820"/>
      <point x="1121" y="863"/>
      <point x="1121" y="970" type="curve" smooth="yes"/>
      <point x="1121" y="1096"/>
      <point x="1061" y="1114"/>
      <point x="900" y="1114" type="curve" smooth="yes"/>
      <point x="712" y="1114" type="line"/>
    </contour>
    <contour>
      <point x="600" y="293" type="line"/>
      <point x="600" y="1212" type="line"/>
      <point x="916" y="1212" type="line" smooth="yes"/>
      <point x="1148" y="1212"/>
      <point x="1229" y="1137"/>
      <point x="1229" y="974" type="curve" smooth="yes"/>
      <point x="1229" y="839"/>
      <point x="1168" y="751"/>
      <point x="1038" y="737" type="curve"/>
      <point x="1054" y="715"/>
      <point x="1262" y="293"/>
      <point x="1262" y="293" type="curve"/>
      <point x="1138" y="293" type="line"/>
      <point x="1138" y="293"/>
      <point x="936" y="712"/>
      <point x="927" y="722" type="curve"/>
      <point x="711" y="722" type="line"/>
      <point x="711" y="293" type="line"/>
    </contour>
  </outline>
</glyph>
<glyph name="macron" format="1">
  <advance width="1056"/>
  <unicode hex="00AF"/>
  <outline>
    <contour>
      <point x="224" y="1341" type="line"/>
      <point x="224" y="1460" type="line"/>
      <point x="809" y="1460" type="line"/>
      <point x="809" y="1341" type="line"/>
    </contour>
  </outline>
</glyph>
<glyph name="plusminus" format="1">
  <advance width="1204"/>
  <unicode hex="00B1"/>
  <outline>
    <contour>
      <point x="530" y="207" type="line"/>
      <point x="530" y="595" type="line"/>
      <point x="158" y="595" type="line"/>
      <point x="158" y="711" type="line"/>
      <point x="530" y="711" type="line"/>
      <point x="530" y="1090" type="line"/>
      <point x="655" y="1090" type="line"/>
      <point x="655" y="711" type="line"/>
      <point x="1021" y="711" type="line"/>
      <point x="1021" y="595" type="line"/>
      <point x="656" y="595" type="line"/>
      <point x="656" y="207" type="line"/>
    </contour>
    <contour>
      <point x="137" y="0" type="line"/>
      <point x="137" y="115" type="line"/>
      <point x="1066" y="115" type="line"/>
      <point x="1066" y="0" type="line"/>
    </contour>
  </outline>
</glyph>
<glyph name="uni00B3" format="1">
  <advance width="800"/>
  <unicode hex="00B3"/>
  <outline>
    <contour>
      <point x="391" y="615" type="curve" smooth="yes"/>
      <point x="309" y="615"/>
      <point x="190" y="640"/>
      <point x="130" y="702" type="curve"/>
      <point x="179" y="798" type="line"/>
      <point x="228" y="754"/>
      <point x="317" y="728"/>
      <point x="379" y="728" type="curve" smooth="yes"/>
      <point x="458" y="728"/>
      <point x="521" y="774"/>
      <point x="521" y="871" type="curve" smooth="yes"/>
      <point x="521" y="963"/>
      <point x="438" y="1009"/>
      <point x="328" y="1009" type="curve" smooth="yes"/>
      <point x="254" y="1009" type="line"/>
      <point x="254" y="1122" type="line"/>
      <point x="325" y="1122" type="line" smooth="yes"/>
      <point x="425" y="1122"/>
      <point x="502" y="1163"/>
      <point x="502" y="1244" type="curve" smooth="yes"/>
      <point x="502" y="1324"/>
      <point x="451" y="1362"/>
      <point x="381" y="1362" type="curve" smooth="yes"/>
      <point x="314" y="1362"/>
      <point x="222" y="1333"/>
      <point x="182" y="1293" type="curve"/>
      <point x="128" y="1380" type="line"/>
      <point x="184" y="1440"/>
      <point x="299" y="1475"/>
      <point x="386" y="1475" type="curve" smooth="yes"/>
      <point x="511" y="1475"/>
      <point x="633" y="1399"/>
      <point x="633" y="1246" type="curve" smooth="yes"/>
      <point x="633" y="1184"/>
      <point x="595" y="1099"/>
      <point x="489" y="1073" type="curve"/>
      <point x="594" y="1042"/>
      <point x="652" y="964"/>
      <point x="652" y="867" type="curve" smooth="yes"/>
      <point x="652" y="710"/>
      <point x="536" y="615"/>
    </contour>
  </outline>
</glyph>
<glyph name="periodcentered" format="1">
  <advance width="478"/>
  <unicode hex="00B7"/>
  <outline>
    <contour>
      <point x="239" y="727" type="curve" smooth="yes"/>
      <point x="302" y="727"/>
      <point x="350" y="684"/>
      <point x="350" y="621" type="curve" smooth="yes"/>
      <point x="350" y="558"/>
      <point x="302" y="514"/>
      <point x="239" y="514" type="curve" smooth="yes"/>
      <point x="175" y="514"/>
      <point x="128" y="558"/>
      <point x="128" y="621" type="curve" smooth="yes"/>
      <point x="128" y="684"/>
      <point x="175" y="727"/>
    </contour>
  </outline>
</glyph>
<glyph name="cedilla" format="1">
  <advance width="575"/>
  <unicode hex="00B8"/>
  <outline>
    <contour>
      <point x="125" y="-376" type="line"/>
      <point x="213" y="10" type="line"/>
      <point x="296" y="10" type="line"/>
      <point x="258" y="-376" type="line"/>
    </contour>
  </outline>
</glyph>
<glyph name="uni00B9" format="1">
  <advance width="802"/>
  <unicode hex="00B9"/>
  <outline>
    <contour>
      <point x="197" y="659" type="line"/>
      <point x="197" y="782" type="line"/>
      <point x="372" y="782" type="line"/>
      <point x="372" y="1307" type="line"/>
      <point x="335" y="1284"/>
      <point x="230" y="1243"/>
      <point x="192" y="1235" type="curve"/>
      <point x="192" y="1368" type="line"/>
      <point x="226" y="1376"/>
      <point x="371" y="1442"/>
      <point x="398" y="1469" type="curve"/>
      <point x="528" y="1469" type="line"/>
      <point x="528" y="782" type="line"/>
      <point x="694" y="782" type="line"/>
      <point x="694" y="659" type="line"/>
    </contour>
  </outline>
</glyph>
<glyph name="onehalf" format="1">
  <advance width="1645"/>
  <unicode hex="00BD"/>
  <outline>
    <contour>
      <point x="303" y="6" type="line"/>
      <point x="1211" y="1479" type="line"/>
      <point x="1344" y="1479" type="line"/>
      <point x="436" y="6" type="line"/>
    </contour>
    <contour>
      <point x="1023" y="-9" type="line"/>
      <point x="1023" y="98" type="line"/>
      <point x="1271" y="340" type="line" smooth="yes"/>
      <point x="1386" y="453"/>
      <point x="1426" y="514"/>
      <point x="1426" y="583" type="curve" smooth="yes"/>
      <point x="1426" y="679"/>
      <point x="1355" y="724"/>
      <point x="1273" y="724" type="curve" smooth="yes"/>
      <point x="1195" y="724"/>
      <point x="1112" y="690"/>
      <point x="1054" y="612" type="curve"/>
      <point x="982" y="690" type="line"/>
      <point x="1035" y="783"/>
      <point x="1156" y="841"/>
      <point x="1271" y="841" type="curve" smooth="yes"/>
      <point x="1423" y="841"/>
      <point x="1558" y="754"/>
      <point x="1558" y="591" type="curve" smooth="yes"/>
      <point x="1558" y="453"/>
      <point x="1484" y="383"/>
      <point x="1360" y="265" type="curve" smooth="yes"/>
      <point x="1189" y="102" type="line"/>
      <point x="1550" y="102" type="line"/>
      <point x="1544" y="-9" type="line"/>
    </contour>
    <contour>
      <point x="83" y="598" type="line"/>
      <point x="83" y="707" type="line"/>
      <point x="237" y="707" type="line"/>
      <point x="237" y="1320" type="line"/>
      <point x="200" y="1297"/>
      <point x="107" y="1260"/>
      <point x="73" y="1248" type="curve"/>
      <point x="73" y="1359" type="line"/>
      <point x="109" y="1372"/>
      <point x="223" y="1421"/>
      <point x="265" y="1460" type="curve"/>
      <point x="375" y="1460" type="line"/>
      <point x="375" y="707" type="line"/>
      <point x="514" y="707" type="line"/>
      <point x="514" y="598" type="line"/>
    </contour>
  </outline>
</glyph>
<glyph name="threequarters" format="1">
  <advance width="1615"/>
  <unicode hex="00BE"/>
  <outline>
    <contour>
      <point x="350" y="615" type="curve" smooth="yes"/>
      <point x="268" y="615"/>
      <point x="149" y="640"/>
      <point x="89" y="702" type="curve"/>
      <point x="138" y="798" type="line"/>
      <point x="187" y="754"/>
      <point x="276" y="728"/>
      <point x="338" y="728" type="curve" smooth="yes"/>
      <point x="417" y="728"/>
      <point x="480" y="774"/>
      <point x="480" y="871" type="curve" smooth="yes"/>
      <point x="480" y="963"/>
      <point x="397" y="1009"/>
      <point x="287" y="1009" type="curve" smooth="yes"/>
      <point x="213" y="1009" type="line"/>
      <point x="213" y="1122" type="line"/>
      <point x="284" y="1122" type="line" smooth="yes"/>
      <point x="384" y="1122"/>
      <point x="461" y="1163"/>
      <point x="461" y="1244" type="curve" smooth="yes"/>
      <point x="461" y="1324"/>
      <point x="410" y="1362"/>
      <point x="340" y="1362" type="curve" smooth="yes"/>
      <point x="273" y="1362"/>
      <point x="181" y="1333"/>
      <point x="141" y="1293" type="curve"/>
      <point x="87" y="1380" type="line"/>
      <point x="143" y="1440"/>
      <point x="258" y="1475"/>
      <point x="345" y="1475" type="curve" smooth="yes"/>
      <point x="470" y="1475"/>
      <point x="592" y="1399"/>
      <point x="592" y="1246" type="curve" smooth="yes"/>
      <point x="592" y="1184"/>
      <point x="554" y="1099"/>
      <point x="448" y="1073" type="curve"/>
      <point x="553" y="1042"/>
      <point x="611" y="964"/>
      <point x="611" y="867" type="curve" smooth="yes"/>
      <point x="611" y="710"/>
      <point x="495" y="615"/>
    </contour>
    <contour>
      <point x="1315" y="0" type="line"/>
      <point x="1315" y="186" type="line"/>
      <point x="937" y="186" type="line"/>
      <point x="937" y="277" type="line"/>
      <point x="1305" y="836" type="line"/>
      <point x="1443" y="836" type="line"/>
      <point x="1443" y="290" type="line"/>
      <point x="1556" y="290" type="line"/>
      <point x="1564" y="186" type="line"/>
      <point x="1442" y="186" type="line"/>
      <point x="1442" y="0" type="line"/>
    </contour>
    <contour>
      <point x="1076" y="290" type="line"/>
      <point x="1314" y="290" type="line"/>
      <point x="1314" y="673" type="line"/>
    </contour>
    <contour>
      <point x="349" y="0" type="line"/>
      <point x="1257" y="1480" type="line"/>
      <point x="1388" y="1480" type="line"/>
      <point x="481" y="0" type="line"/>
    </contour>
  </outline>
</glyph>
<glyph name="Oslash" format="1">
  <advance width="1616"/>
  <unicode hex="00D8"/>
  <outline>
    <component base="O"/>
    <contour>
      <point x="515" y="-228" type="line"/>
      <point x="419" y="-195" type="line"/>
      <point x="1137" y="1662" type="line"/>
      <point x="1239" y="1624" type="line"/>
    </contour>
  </outline>
</glyph>
<glyph name="germandbls" format="1">
  <advance width="1132"/>
  <unicode hex="00DF"/>
  <outline>
    <contour>
      <point x="298" y="0" type="line"/>
      <point x="134" y="0" type="line"/>
      <point x="134" y="1019" type="line" smooth="yes"/>
      <point x="134" y="1306"/>
      <point x="256" y="1480"/>
      <point x="553" y="1480" type="curve" smooth="yes"/>
      <point x="777" y="1480"/>
      <point x="920" y="1356"/>
      <point x="920" y="1171" type="curve" smooth="yes"/>
      <point x="920" y="961"/>
      <point x="711" y="852"/>
      <point x="711" y="761" type="curve" smooth="yes"/>
      <point x="711" y="645"/>
      <point x="1089" y="577"/>
      <point x="1089" y="286" type="curve" smooth="yes"/>
      <point x="1089" y="99"/>
      <point x="967" y="-20"/>
      <point x="767" y="-20" type="curve" smooth="yes"/>
      <point x="641" y="-20"/>
      <point x="516" y="17"/>
      <point x="438" y="56" type="curve"/>
      <point x="482" y="178" type="line"/>
      <point x="538" y="149"/>
      <point x="637" y="111"/>
      <point x="748" y="111" type="curve" smooth="yes"/>
      <point x="876" y="111"/>
      <point x="929" y="194"/>
      <point x="929" y="283" type="curve" smooth="yes"/>
      <point x="929" y="493"/>
      <point x="559" y="554"/>
      <point x="559" y="747" type="curve" smooth="yes"/>
      <point x="559" y="911"/>
      <point x="763" y="969"/>
      <point x="763" y="1172" type="curve" smooth="yes"/>
      <point x="763" y="1279"/>
      <point x="695" y="1352"/>
      <point x="558" y="1352" type="curve" smooth="yes"/>
      <point x="371" y="1352"/>
      <point x="298" y="1261"/>
      <point x="298" y="1023" type="curve" smooth="yes"/>
    </contour>
  </outline>
</glyph>
<glyph name="ae" format="1">
  <advance width="1709"/>
  <unicode hex="00E6"/>
  <outline>
    <contour>
      <point x="922" y="603" type="curve"/>
      <point x="1322" y="603"/>
      <point x="1485" y="644"/>
      <point x="1485" y="780" type="curve" smooth="yes"/>
      <point x="1485" y="882"/>
      <point x="1399" y="953"/>
      <point x="1244" y="953" type="curve" smooth="yes"/>
      <point x="1065" y="953"/>
      <point x="944" y="834"/>
    </contour>
    <contour>
      <point x="438" y="101" type="curve" smooth="yes"/>
      <point x="560" y="101"/>
      <point x="723" y="173"/>
      <point x="810" y="264" type="curve"/>
      <point x="784" y="326"/>
      <point x="767" y="419"/>
      <point x="766" y="496" type="curve"/>
      <point x="611" y="496" type="line" smooth="yes"/>
      <point x="330" y="496"/>
      <point x="253" y="434"/>
      <point x="253" y="304" type="curve" smooth="yes"/>
      <point x="253" y="167"/>
      <point x="325" y="101"/>
    </contour>
    <contour>
      <point x="420" y="-20" type="curve" smooth="yes"/>
      <point x="240" y="-20"/>
      <point x="97" y="87"/>
      <point x="97" y="301" type="curve" smooth="yes"/>
      <point x="97" y="520"/>
      <point x="264" y="606"/>
      <point x="601" y="606" type="curve" smooth="yes"/>
      <point x="764" y="606" type="line"/>
      <point x="764" y="722" type="line" smooth="yes"/>
      <point x="764" y="872"/>
      <point x="700" y="953"/>
      <point x="537" y="953" type="curve" smooth="yes"/>
      <point x="401" y="953"/>
      <point x="270" y="923"/>
      <point x="184" y="879" type="curve"/>
      <point x="138" y="1000" type="line"/>
      <point x="245" y="1050"/>
      <point x="378" y="1080"/>
      <point x="532" y="1080" type="curve" smooth="yes"/>
      <point x="713" y="1080"/>
      <point x="855" y="1003"/>
      <point x="875" y="830" type="curve"/>
      <point x="920" y="985"/>
      <point x="1082" y="1080"/>
      <point x="1241" y="1080" type="curve" smooth="yes"/>
      <point x="1502" y="1080"/>
      <point x="1615" y="931"/>
      <point x="1615" y="781" type="curve" smooth="yes"/>
      <point x="1615" y="579"/>
      <point x="1467" y="495"/>
      <point x="919" y="495" type="curve"/>
      <point x="929" y="216"/>
      <point x="1059" y="106"/>
      <point x="1256" y="106" type="curve" smooth="yes"/>
      <point x="1385" y="106"/>
      <point x="1469" y="135"/>
      <point x="1573" y="190" type="curve"/>
      <point x="1608" y="73" type="line"/>
      <point x="1514" y="16"/>
      <point x="1406" y="-20"/>
      <point x="1247" y="-20" type="curve" smooth="yes"/>
      <point x="1077" y="-20"/>
      <point x="950" y="46"/>
      <point x="873" y="162" type="curve"/>
      <point x="786" y="63"/>
      <point x="592" y="-20"/>
    </contour>
  </outline>
</glyph>
<glyph name="eth" format="1">
  <advance width="1244"/>
  <unicode hex="00F0"/>
  <outline>
    <contour>
      <point x="626" y="106" type="curve" smooth="yes"/>
      <point x="851" y="106"/>
      <point x="967" y="256"/>
      <point x="967" y="486" type="curve" smooth="yes"/>
      <point x="967" y="664"/>
      <point x="844" y="833"/>
      <point x="620" y="833" type="curve" smooth="yes"/>
      <point x="408" y="833"/>
      <point x="284" y="680"/>
      <point x="284" y="477" type="curve" smooth="yes"/>
      <point x="284" y="287"/>
      <point x="395" y="106"/>
    </contour>
    <contour>
      <point x="620" y="-20" type="curve" smooth="yes"/>
      <point x="296" y="-20"/>
      <point x="125" y="216"/>
      <point x="125" y="478" type="curve" smooth="yes"/>
      <point x="125" y="762"/>
      <point x="325" y="953"/>
      <point x="605" y="953" type="curve" smooth="yes"/>
      <point x="753" y="953"/>
      <point x="819" y="893"/>
      <point x="879" y="848" type="curve"/>
      <point x="826" y="946"/>
      <point x="726" y="1077"/>
      <point x="544" y="1253" type="curve"/>
      <point x="288" y="1155" type="line"/>
      <point x="241" y="1262" type="line"/>
      <point x="465" y="1348" type="line"/>
      <point x="249" y="1548" type="line"/>
      <point x="434" y="1548" type="line"/>
      <point x="589" y="1397" type="line"/>
      <point x="878" y="1506" type="line"/>
      <point x="926" y="1401" type="line"/>
      <point x="673" y="1307" type="line"/>
      <point x="865" y="1104"/>
      <point x="964" y="976"/>
      <point x="1030" y="850" type="curve" smooth="yes"/>
      <point x="1081" y="752"/>
      <point x="1115" y="614"/>
      <point x="1115" y="480" type="curve" smooth="yes"/>
      <point x="1115" y="198"/>
      <point x="952" y="-20"/>
    </contour>
  </outline>
</glyph>
<glyph name="divide" format="1">
  <advance width="1204"/>
  <unicode hex="00F7"/>
  <outline>
    <contour>
      <point x="507" y="871" type="line"/>
      <point x="507" y="1068" type="line"/>
      <point x="700" y="1068" type="line"/>
      <point x="700" y="871" type="line"/>
    </contour>
    <contour>
      <point x="126" y="495" type="line"/>
      <point x="126" y="630" type="line"/>
      <point x="1077" y="630" type="line"/>
      <point x="1077" y="495" type="line"/>
    </contour>
    <contour>
      <point x="507" y="32" type="line"/>
      <point x="507" y="233" type="line"/>
      <point x="698" y="233" type="line"/>
      <point x="698" y="32" type="line"/>
    </contour>
  </outline>
</glyph>
<glyph name="oslash" format="1">
  <advance width="1165"/>
  <unicode hex="00F8"/>
  <outline>
    <component base="o"/>
    <contour>
      <point x="293" y="-150" type="line"/>
      <point x="228" y="-113" type="line"/>
      <point x="947" y="1216" type="line"/>
      <point x="1018" y="1179" type="line"/>
    </contour>
  </outline>
</glyph>
<glyph name="thorn" format="1">
  <advance width="1165"/>
  <unicode hex="00FE"/>
  <outline>
    <component base="b"/>
    <contour>
      <point x="136" y="297" type="line"/>
      <point x="304" y="297" type="line"/>
      <point x="304" y="-464" type="line"/>
      <point x="136" y="-464" type="line"/>
    </contour>
  </outline>
</glyph>
<glyph name="Hbar" format="1">
  <advance width="1567"/>
  <unicode hex="0126"/>
  <outline>
    <contour>
      <point x="377" y="818" type="line"/>
      <point x="1205" y="818" type="line"/>
      <point x="1205" y="1106" type="line"/>
      <point x="377" y="1106" type="line"/>
    </contour>
    <contour>
      <point x="230" y="0" type="line"/>
      <point x="230" y="1106" type="line"/>
      <point x="141" y="1106" type="line"/>
      <point x="141" y="1199" type="line"/>
      <point x="230" y="1199" type="line"/>
      <point x="230" y="1452" type="line"/>
      <point x="377" y="1452" type="line"/>
      <point x="377" y="1199" type="line"/>
      <point x="1205" y="1199" type="line"/>
      <point x="1205" y="1452" type="line"/>
      <point x="1352" y="1452" type="line"/>
      <point x="1352" y="1199" type="line"/>
      <point x="1441" y="1199" type="line"/>
      <point x="1441" y="1106" type="line"/>
      <point x="1352" y="1106" type="line"/>
      <point x="1352" y="0" type="line"/>
      <point x="1205" y="0" type="line"/>
      <point x="1205" y="680" type="line"/>
      <point x="377" y="680" type="line"/>
      <point x="377" y="0" type="line"/>
    </contour>
  </outline>
</glyph>
<glyph name="dotlessi" format="1">
  <advance width="427"/>
  <unicode hex="0131"/>
  <outline>
    <contour>
      <point x="164" y="0" type="line"/>
      <point x="164" y="1058" type="line"/>
      <point x="328" y="1058" type="line"/>
      <point x="328" y="0" type="line"/>
    </contour>
  </outline>
</glyph>
<glyph name="napostrophe" format="1">
  <advance width="1133"/>
  <unicode hex="0149"/>
  <outline>
    <component base="n"/>
    <contour>
      <point x="132" y="1194" type="line"/>
      <point x="133" y="1641" type="line"/>
      <point x="288" y="1641" type="line"/>
      <point x="234" y="1194" type="line"/>
    </contour>
  </outline>
</glyph>
<glyph name="Eng" format="1">
  <advance width="1367"/>
  <unicode hex="014A"/>
  <outline>
    <contour>
      <point x="825" y="-316" type="curve" smooth="yes"/>
      <point x="794" y="-316"/>
      <point x="745" y="-314"/>
      <point x="607" y="-301" type="curve"/>
      <point x="585" y="-174" type="line"/>
      <point x="738" y="-183"/>
      <point x="748" y="-184"/>
      <point x="771" y="-184" type="curve" smooth="yes"/>
      <point x="1063" y="-184"/>
      <point x="1083" y="-109"/>
      <point x="1083" y="169" type="curve" smooth="yes"/>
      <point x="1083" y="980" type="line" smooth="yes"/>
      <point x="1083" y="1242"/>
      <point x="1009" y="1329"/>
      <point x="787" y="1329" type="curve" smooth="yes"/>
      <point x="553" y="1329"/>
      <point x="389" y="1196"/>
      <point x="295" y="1059" type="curve"/>
      <point x="295" y="0" type="line"/>
      <point x="158" y="0" type="line"/>
      <point x="155" y="1460" type="line"/>
      <point x="282" y="1460" type="line"/>
      <point x="298" y="1238" type="line"/>
      <point x="491" y="1441"/>
      <point x="664" y="1475"/>
      <point x="836" y="1475" type="curve" smooth="yes"/>
      <point x="1089" y="1475"/>
      <point x="1220" y="1305"/>
      <point x="1220" y="984" type="curve" smooth="yes"/>
      <point x="1220" y="161" type="line" smooth="yes"/>
      <point x="1220" y="-135"/>
      <point x="1171" y="-316"/>
    </contour>
  </outline>
</glyph>
<glyph name="eng" format="1">
  <advance width="1163"/>
  <unicode hex="014B"/>
  <outline>
    <contour>
      <point x="629" y="-282" type="line"/>
      <point x="621" y="-133" type="line"/>
      <point x="656" y="-133" type="line" smooth="yes"/>
      <point x="828" y="-133"/>
      <point x="846" y="-104"/>
      <point x="846" y="109" type="curve" smooth="yes"/>
      <point x="846" y="665" type="line" smooth="yes"/>
      <point x="846" y="843"/>
      <point x="807" y="953"/>
      <point x="637" y="953" type="curve" smooth="yes"/>
      <point x="449" y="953"/>
      <point x="370" y="855"/>
      <point x="339" y="725" type="curve"/>
      <point x="335" y="682"/>
      <point x="332" y="638"/>
      <point x="332" y="590" type="curve" smooth="yes"/>
      <point x="332" y="0" type="line"/>
      <point x="165" y="0" type="line"/>
      <point x="165" y="1059" type="line"/>
      <point x="309" y="1059" type="line"/>
      <point x="328" y="902" type="line"/>
      <point x="403" y="1022"/>
      <point x="513" y="1080"/>
      <point x="665" y="1080" type="curve" smooth="yes"/>
      <point x="909" y="1080"/>
      <point x="1012" y="935"/>
      <point x="1012" y="647" type="curve" smooth="yes"/>
      <point x="1012" y="161" type="line" smooth="yes"/>
      <point x="1012" y="-133"/>
      <point x="972" y="-282"/>
      <point x="696" y="-282" type="curve" smooth="yes"/>
    </contour>
  </outline>
</glyph>
<glyph name="OE" format="1">
  <advance width="1881"/>
  <unicode hex="0152"/>
  <outline>
    <contour>
      <point x="1794" y="1460" type="line"/>
      <point x="1788" y="1328" type="line"/>
      <point x="1088" y="1328" type="line"/>
      <point x="1088" y="821" type="line"/>
      <point x="1726" y="821" type="line"/>
      <point x="1726" y="689" type="line"/>
      <point x="1088" y="689" type="line"/>
      <point x="1088" y="134" type="line"/>
      <point x="1809" y="134" type="line"/>
      <point x="1797" y="0" type="line"/>
      <point x="902" y="0" type="line" smooth="yes"/>
      <point x="439" y="0"/>
      <point x="120" y="226"/>
      <point x="120" y="726" type="curve" smooth="yes"/>
      <point x="120" y="1201"/>
      <point x="411" y="1460"/>
      <point x="873" y="1460" type="curve" smooth="yes"/>
    </contour>
    <contour>
      <point x="912" y="132" type="line"/>
      <point x="912" y="1326" type="line"/>
      <point x="883" y="1326" type="line" smooth="yes"/>
      <point x="492" y="1326"/>
      <point x="296" y="1118"/>
      <point x="296" y="731" type="curve" smooth="yes"/>
      <point x="296" y="307"/>
      <point x="521" y="132"/>
      <point x="910" y="132" type="curve" smooth="yes"/>
    </contour>
  </outline>
</glyph>
<glyph name="tcaron" format="1">
  <advance width="737"/>
  <unicode hex="0165"/>
  <outline>
    <component base="t"/>
    <contour>
      <point x="554" y="1245" type="line"/>
      <point x="555" y="1692" type="line"/>
      <point x="702" y="1692" type="line"/>
      <point x="651" y="1245" type="line"/>
    </contour>
  </outline>
</glyph>
<glyph name="tbar" format="1">
  <advance width="737"/>
  <unicode hex="0167"/>
  <outline>
    <component base="t"/>
    <contour>
      <point x="65" y="622" type="line"/>
      <point x="65" y="719" type="line"/>
      <point x="603" y="719" type="line"/>
      <point x="603" y="622" type="line"/>
    </contour>
  </outline>
</glyph>
<glyph name="uni0237" format="1">
  <advance width="545"/>
  <unicode hex="0237"/>
  <outline>
    <contour>
      <point x="20" y="-378" type="line"/>
      <point x="1" y="-250" type="line"/>
      <point x="63" y="-238" type="line" smooth="yes"/>
      <point x="212" y="-209"/>
      <point x="215" y="-174"/>
      <point x="215" y="11" type="curve" smooth="yes"/>
      <point x="215" y="1058" type="line"/>
      <point x="382" y="1058" type="line"/>
      <point x="382" y="-19" type="line" smooth="yes"/>
      <point x="382" y="-272"/>
      <point x="299" y="-345"/>
      <point x="79" y="-371" type="curve" smooth="yes"/>
    </contour>
  </outline>
</glyph>
<glyph name="dotaccent" format="1">
  <advance width="365"/>
  <unicode hex="02D9"/>
  <outline>
    <contour>
      <point x="110" y="1289" type="line"/>
      <point x="110" y="1460" type="line"/>
      <point x="261" y="1460" type="line"/>
      <point x="261" y="1289" type="line"/>
    </contour>
  </outline>
</glyph>
<glyph name="ring" format="1">
  <advance width="603"/>
  <unicode hex="02DA"/>
  <outline>
    <contour>
      <point x="302" y="1128" type="curve" smooth="yes"/>
      <point x="196" y="1128"/>
      <point x="118" y="1206"/>
      <point x="118" y="1304" type="curve" smooth="yes"/>
      <point x="118" y="1402"/>
      <point x="195" y="1480"/>
      <point x="302" y="1480" type="curve" smooth="yes"/>
      <point x="409" y="1480"/>
      <point x="485" y="1402"/>
      <point x="485" y="1304" type="curve" smooth="yes"/>
      <point x="485" y="1206"/>
      <point x="408" y="1128"/>
    </contour>
    <contour>
      <point x="302" y="1203" type="curve" smooth="yes"/>
      <point x="358" y="1203"/>
      <point x="398" y="1248"/>
      <point x="398" y="1303" type="curve" smooth="yes"/>
      <point x="398" y="1357"/>
      <point x="358" y="1402"/>
      <point x="302" y="1402" type="curve" smooth="yes"/>
      <point x="247" y="1402"/>
      <point x="206" y="1357"/>
      <point x="206" y="1303" type="curve" smooth="yes"/>
      <point x="206" y="1248"/>
      <point x="246" y="1203"/>
    </contour>
  </outline>
</glyph>
<glyph name="ogonek" format="1">
  <advance width="570"/>
  <unicode hex="02DB"/>
  <outline>
    <contour>
      <point x="448" y="-381" type="line"/>
      <point x="416" y="-396"/>
      <point x="353" y="-410"/>
      <point x="304" y="-410" type="curve" smooth="yes"/>
      <point x="179" y="-410"/>
      <point x="115" y="-352"/>
      <point x="115" y="-264" type="curve" smooth="yes"/>
      <point x="115" y="-152"/>
      <point x="217" y="-37"/>
      <point x="321" y="4" type="curve"/>
      <point x="401" y="4" type="line"/>
      <point x="342" y="-38"/>
      <point x="255" y="-149"/>
      <point x="255" y="-225" type="curve" smooth="yes"/>
      <point x="255" y="-281"/>
      <point x="293" y="-304"/>
      <point x="338" y="-304" type="curve" smooth="yes"/>
      <point x="380" y="-304"/>
      <point x="427" y="-288"/>
      <point x="446" y="-280" type="curve"/>
    </contour>
  </outline>
</glyph>
<glyph name="tilde" format="1">
  <advance width="874"/>
  <unicode hex="02DC"/>
  <outline>
    <contour>
      <point x="213" y="1261" type="curve"/>
      <point x="129" y="1261" type="line"/>
      <point x="129" y="1399"/>
      <point x="193" y="1461"/>
      <point x="287" y="1461" type="curve" smooth="yes"/>
      <point x="404" y="1461"/>
      <point x="508" y="1375"/>
      <point x="570" y="1375" type="curve" smooth="yes"/>
      <point x="601" y="1375"/>
      <point x="622" y="1395"/>
      <point x="630" y="1460" type="curve"/>
      <point x="716" y="1460" type="line"/>
      <point x="716" y="1323"/>
      <point x="657" y="1261"/>
      <point x="576" y="1261" type="curve" smooth="yes"/>
      <point x="472" y="1261"/>
      <point x="353" y="1358"/>
      <point x="281" y="1358" type="curve" smooth="yes"/>
      <point x="246" y="1358"/>
      <point x="221" y="1330"/>
    </contour>
  </outline>
</glyph>
<glyph name="uni0307" format="1">
  <advance width="339"/>
  <unicode hex="0307"/>
  <outline>
    <contour>
      <point x="94" y="1274" type="line"/>
      <point x="94" y="1460" type="line"/>
      <point x="245" y="1460" type="line"/>
      <point x="245" y="1274" type="line"/>
    </contour>
  </outline>
</glyph>
<glyph name="uni030F" format="1">
  <advance width="695"/>
  <unicode hex="030F"/>
  <outline>
    <contour>
      <point x="372" y="1058" type="line"/>
      <point x="293" y="1058" type="line"/>
      <point x="87" y="1460" type="line"/>
      <point x="220" y="1460" type="line"/>
    </contour>
    <contour>
      <point x="561" y="1058" type="line"/>
      <point x="485" y="1058" type="line"/>
      <point x="324" y="1460" type="line"/>
      <point x="452" y="1460" type="line"/>
    </contour>
  </outline>
</glyph>
<glyph name="dagger" format="1">
  <advance width="911"/>
  <unicode hex="2020"/>
  <outline>
    <contour>
      <point x="400" y="118" type="line"/>
      <point x="400" y="988" type="line"/>
      <point x="113" y="988" type="line"/>
      <point x="113" y="1087" type="line"/>
      <point x="400" y="1087" type="line"/>
      <point x="400" y="1460" type="line"/>
      <point x="507" y="1460" type="line"/>
      <point x="507" y="1087" type="line"/>
      <point x="800" y="1087" type="line"/>
      <point x="800" y="988" type="line"/>
      <point x="509" y="988" type="line"/>
      <point x="509" y="118" type="line"/>
    </contour>
  </outline>
</glyph>
<glyph name="perthousand" format="1">
  <advance width="2278"/>
  <unicode hex="2030"/>
  <outline>
    <contour>
      <point x="1837" y="-29" type="curve" smooth="yes"/>
      <point x="1625" y="-29"/>
      <point x="1520" y="121"/>
      <point x="1520" y="345" type="curve" smooth="yes"/>
      <point x="1520" y="557"/>
      <point x="1626" y="716"/>
      <point x="1843" y="716" type="curve" smooth="yes"/>
      <point x="2057" y="716"/>
      <point x="2159" y="572"/>
      <point x="2159" y="342" type="curve" smooth="yes"/>
      <point x="2159" y="131"/>
      <point x="2052" y="-29"/>
    </contour>
    <contour>
      <point x="1843" y="91" type="curve" smooth="yes"/>
      <point x="1972" y="91"/>
      <point x="2037" y="209"/>
      <point x="2037" y="345" type="curve" smooth="yes"/>
      <point x="2037" y="484"/>
      <point x="1968" y="594"/>
      <point x="1840" y="594" type="curve" smooth="yes"/>
      <point x="1707" y="594"/>
      <point x="1644" y="480"/>
      <point x="1644" y="345" type="curve" smooth="yes"/>
      <point x="1644" y="202"/>
      <point x="1709" y="91"/>
    </contour>
    <contour>
      <point x="1086" y="-29" type="curve" smooth="yes"/>
      <point x="872" y="-29"/>
      <point x="767" y="121"/>
      <point x="767" y="345" type="curve" smooth="yes"/>
      <point x="767" y="557"/>
      <point x="870" y="716"/>
      <point x="1088" y="716" type="curve" smooth="yes"/>
      <point x="1306" y="716"/>
      <point x="1407" y="568"/>
      <point x="1407" y="342" type="curve" smooth="yes"/>
      <point x="1407" y="131"/>
      <point x="1301" y="-29"/>
    </contour>
    <contour>
      <point x="1088" y="91" type="curve" smooth="yes"/>
      <point x="1217" y="91"/>
      <point x="1282" y="211"/>
      <point x="1282" y="345" type="curve" smooth="yes"/>
      <point x="1282" y="487"/>
      <point x="1221" y="594"/>
      <point x="1087" y="594" type="curve" smooth="yes"/>
      <point x="958" y="594"/>
      <point x="895" y="480"/>
      <point x="895" y="345" type="curve" smooth="yes"/>
      <point x="895" y="202"/>
      <point x="959" y="91"/>
    </contour>
    <contour>
      <point x="263" y="-21" type="line"/>
      <point x="1097" y="1507" type="line"/>
      <point x="1250" y="1507" type="line"/>
      <point x="395" y="-21" type="line"/>
    </contour>
    <contour>
      <point x="404" y="775" type="curve" smooth="yes"/>
      <point x="219" y="775"/>
      <point x="116" y="925"/>
      <point x="116" y="1149" type="curve" smooth="yes"/>
      <point x="116" y="1362"/>
      <point x="219" y="1518"/>
      <point x="406" y="1518" type="curve" smooth="yes"/>
      <point x="595" y="1518"/>
      <point x="694" y="1373"/>
      <point x="694" y="1145" type="curve" smooth="yes"/>
      <point x="694" y="934"/>
      <point x="588" y="775"/>
    </contour>
    <contour>
      <point x="408" y="895" type="curve" smooth="yes"/>
      <point x="516" y="895"/>
      <point x="569" y="1012"/>
      <point x="569" y="1147" type="curve" smooth="yes"/>
      <point x="569" y="1290"/>
      <point x="516" y="1401"/>
      <point x="404" y="1401" type="curve" smooth="yes"/>
      <point x="294" y="1401"/>
      <point x="242" y="1284"/>
      <point x="242" y="1149" type="curve" smooth="yes"/>
      <point x="242" y="1006"/>
      <point x="295" y="895"/>
    </contour>
  </outline>
</glyph>
<glyph name="guilsinglleft" format="1">
  <advance width="599"/>
  <unicode hex="2039"/>
  <outline>
    <contour>
      <point x="525" y="980" type="line"/>
      <point x="235" y="559" type="line"/>
      <point x="519" y="148" type="line"/>
      <point x="388" y="148" type="line"/>
      <point x="95" y="560" type="line"/>
      <point x="393" y="980" type="line"/>
    </contour>
  </outline>
</glyph>
<glyph name="guilsinglright" format="1">
  <advance width="607"/>
  <unicode hex="203A"/>
  <outline>
    <contour>
      <point x="111" y="148" type="line"/>
      <point x="401" y="568" type="line"/>
      <point x="117" y="980" type="line"/>
      <point x="248" y="980" type="line"/>
      <point x="542" y="568" type="line"/>
      <point x="244" y="148" type="line"/>
    </contour>
  </outline>
</glyph>
<glyph name="fraction" format="1">
  <advance width="1139"/>
  <unicode hex="2044"/>
  <outline>
    <contour>
      <point x="127" y="0" type="line"/>
      <point x="906" y="1460" type="line"/>
      <point x="1034" y="1460" type="line"/>
      <point x="264" y="0" type="line"/>
    </contour>
  </outline>
</glyph>
<glyph name="uni2074" format="1">
  <advance width="734"/>
  <unicode hex="2074"/>
  <outline>
    <contour>
      <point x="214" y="950" type="line"/>
      <point x="438" y="950" type="line"/>
      <point x="439" y="1327" type="line"/>
    </contour>
    <contour>
      <point x="438" y="649" type="line"/>
      <point x="438" y="851" type="line"/>
      <point x="120" y="851" type="line"/>
      <point x="120" y="941" type="line"/>
      <point x="425" y="1482" type="line"/>
      <point x="528" y="1482" type="line"/>
      <point x="528" y="950" type="line"/>
      <point x="618" y="950" type="line"/>
      <point x="626" y="851" type="line"/>
      <point x="525" y="851" type="line"/>
      <point x="526" y="649" type="line"/>
    </contour>
  </outline>
</glyph>
<glyph name="Euro" format="1">
  <advance width="1292"/>
  <unicode hex="20AC"/>
  <outline>
    <component base="C"/>
    <contour>
      <point x="874" y="524" type="line"/>
      <point x="17" y="524" type="line"/>
      <point x="25" y="633" type="line"/>
      <point x="161" y="633" type="line"/>
      <point x="161" y="808" type="line"/>
      <point x="24" y="808" type="line"/>
      <point x="30" y="914" type="line"/>
      <point x="890" y="914" type="line"/>
      <point x="882" y="808" type="line"/>
      <point x="247" y="808" type="line"/>
      <point x="247" y="633" type="line"/>
      <point x="882" y="633" type="line"/>
    </contour>
  </outline>
</glyph>
<glyph name="product" format="1">
  <advance width="1428"/>
  <unicode hex="220F"/>
  <outline>
    <contour>
      <point x="146" y="0" type="line"/>
      <point x="146" y="1460" type="line"/>
      <point x="1284" y="1460" type="line"/>
      <point x="1284" y="0" type="line"/>
      <point x="1112" y="0" type="line"/>
      <point x="1112" y="1313" type="line"/>
      <point x="319" y="1313" type="line"/>
      <point x="319" y="0" type="line"/>
    </contour>
  </outline>
</glyph>
<glyph name="lessequal" format="1">
  <advance width="1179"/>
  <unicode hex="2264"/>
  <outline>
    <contour>
      <point x="123" y="1" type="line"/>
      <point x="123" y="118" type="line"/>
      <point x="1064" y="118" type="line"/>
      <point x="1064" y="1" type="line"/>
    </contour>
    <contour>
      <point x="1035" y="252" type="line"/>
      <point x="158" y="711" type="line"/>
      <point x="158" y="791" type="line"/>
      <point x="1035" y="1274" type="line"/>
      <point x="1035" y="1137" type="line"/>
      <point x="336" y="752" type="line"/>
      <point x="1035" y="387" type="line"/>
    </contour>
  </outline>
</glyph>
<glyph name="greaterequal" format="1">
  <advance width="1176"/>
  <unicode hex="2265"/>
  <outline>
    <contour>
      <point x="128" y="8" type="line"/>
      <point x="128" y="130" type="line"/>
      <point x="1062" y="131" type="line"/>
      <point x="1062" y="8" type="line"/>
    </contour>
    <contour>
      <point x="158" y="230" type="line"/>
      <point x="158" y="364" type="line"/>
      <point x="868" y="740" type="line"/>
      <point x="162" y="1141" type="line"/>
      <point x="162" y="1277" type="line"/>
      <point x="1043" y="779" type="line"/>
      <point x="1043" y="701" type="line"/>
    </contour>
  </outline>
</glyph>
